<?xml version="1.0" encoding="UTF-8" standalone="no"?>
<!-- Created with Inkscape (http://www.inkscape.org/) -->

<svg
   version="1.1"
   id="svg2"
   width="682.84595"
   height="682.85168"
   viewBox="0 0 682.84595 682.85169"
   sodipodi:docname="area_icon.svg"
   inkscape:version="1.1.2 (0a00cf5339, 2022-02-04)"
   xmlns:inkscape="http://www.inkscape.org/namespaces/inkscape"
   xmlns:sodipodi="http://sodipodi.sourceforge.net/DTD/sodipodi-0.dtd"
   xmlns="http://www.w3.org/2000/svg"
   xmlns:svg="http://www.w3.org/2000/svg">
  <defs
     id="defs6" />
  <sodipodi:namedview
     id="namedview4"
     pagecolor="#ffffff"
     bordercolor="#666666"
     borderopacity="1.0"
     inkscape:pageshadow="2"
     inkscape:pageopacity="0.0"
     inkscape:pagecheckerboard="0"
     showgrid="false"
     inkscape:zoom="0.35234408"
     inkscape:cx="422.88209"
     inkscape:cy="285.23255"
     inkscape:window-width="1298"
     inkscape:window-height="704"
     inkscape:window-x="70"
     inkscape:window-y="27"
     inkscape:window-maximized="1"
     inkscape:current-layer="g8" />
  <g
     inkscape:groupmode="layer"
     inkscape:label="Image"
     id="g8"
     transform="translate(739.52572,-7.4166713)">
    <path
       style="fill:#000000;stroke-width:1.33333"
       d="m -152.81501,686.37089 c -5.75292,-3.00536 -7.81356,-5.066 -10.81892,-10.81892 -7.45263,-14.26594 -3.91295,-23.53792 16.74734,-43.86875 l 13.82027,-13.59986 -217.47338,-0.0101 c -145.87627,-0.007 -220.32665,-0.47237 -226.14005,-1.41428 -23.18605,-3.75667 -41.65021,-13.32341 -58.78456,-30.45776 -17.13435,-17.13435 -26.7011,-35.59851 -30.45776,-58.78456 -0.94199,-5.81388 -1.40752,-80.3863 -1.41427,-226.54886 l -0.0101,-217.882208 -15,14.649332 c -16.58275,16.195106 -23.35465,20.044566 -32.98879,18.752356 -8.91192,-1.19534 -16.61219,-6.64628 -20.54899,-14.5464 -8.08674,-16.22797 -4.67604,-22.510396 30.60743,-56.378156 23.60909,-22.6618 28.57924,-26.798328 36.93833,-30.742795 19.03743,-8.9833464 38.95486,-8.9795136 58.00754,0.01116 8.38394,3.956256 13.33421,8.0731 36.91841,30.702822 35.25579,33.828953 38.69557,40.168956 30.60384,56.406969 -3.9368,7.90012 -11.63708,13.35106 -20.549,14.5464 -9.85259,1.32151 -16.33693,-2.4736 -34.32211,-20.087762 l -16.3333,-15.996401 V 297.79428 c 0,155.95506 0.42417,219.49027 1.49917,224.55678 4.32896,20.40249 20.4973,36.57083 40.89979,40.89979 5.0664,1.07499 68.56444,1.49917 224.41317,1.49917 h 217.34754 l -15.32835,-14.73578 c -22.37617,-21.51119 -26.11981,-30.72198 -18.45217,-45.3995 3.00536,-5.75292 5.066,-7.81356 10.81892,-10.81892 16.16173,-8.443 22.16884,-5.25096 57.580162,30.59675 24.44911,24.7504 27.80077,28.68185 31.56404,37.02412 8.49732,18.83655 8.49732,38.49679 0,57.33333 -3.76327,8.34227 -7.11493,12.27372 -31.56404,37.02413 -35.411322,35.8477 -41.418432,39.03974 -57.580162,30.59674 z M -546.14836,461.03755 c -5.75292,-3.00536 -7.81356,-5.066 -10.81892,-10.81892 l -3.71247,-7.10645 v -88.36216 -88.36217 l 3.71247,-7.10645 c 3.00536,-5.75292 5.066,-7.81356 10.81892,-10.81892 8.84408,-4.62022 15.07255,-4.71098 23.57597,-0.34358 l 6.55931,3.3689 7.33333,-2.3689 c 5.28368,-1.7068 11.2463,-2.33024 21.33334,-2.2306 16.29252,0.16095 26.54568,2.93906 38.82909,10.52082 l 7.83758,4.83763 7.83757,-4.83763 c 29.39264,-18.14218 66.07475,-13.85479 90.18523,10.5408 10.92855,11.05777 15.6968,19.33719 19.33967,33.58068 2.45214,9.58779 2.63753,14.91833 2.63753,75.83758 v 65.52492 l -3.46223,6.9478 c -4.62222,9.27559 -12.66716,14.19801 -23.20444,14.19801 -10.53728,0 -18.58221,-4.92242 -23.20444,-14.19801 l -3.46222,-6.9478 v -63.87004 c 0,-70.58101 0.0823,-69.84583 -8.49772,-75.96597 -5.81842,-4.15032 -17.18615,-4.15032 -23.00457,0 -8.58122,6.12104 -8.49772,5.37346 -8.49772,76.07551 v 63.97958 l -3.71246,7.10645 c -3.00536,5.75292 -5.066,7.81356 -10.81892,10.81892 -4.11311,2.14872 -9.22467,3.71247 -12.13528,3.71247 -2.91062,0 -8.02218,-1.56375 -12.13528,-3.71247 -5.75292,-3.00536 -7.81356,-5.066 -10.81892,-10.81892 l -3.71247,-7.10645 V 379.1326 c 0,-70.70205 0.0835,-69.95447 -8.49772,-76.07551 -5.81841,-4.15032 -17.18615,-4.15032 -23.00456,0 -8.58123,6.12104 -8.49772,5.37346 -8.49772,76.07551 v 63.97958 l -3.71247,7.10645 c -3.00536,5.75292 -5.066,7.81356 -10.81892,10.81892 -4.11311,2.14872 -9.22467,3.71247 -12.13528,3.71247 -2.91061,0 -8.02217,-1.56375 -12.13528,-3.71247 z m 451.044422,-3.74976 c -5.158202,-2.57044 -7.887262,-5.06036 -10.595132,-9.66666 l -3.64733,-6.20445 -0.66667,-181.33333 -0.66666,-181.333343 -3.16422,-5.089758 c -1.74032,-2.799365 -5.59628,-6.699365 -8.5688,-8.666667 l -5.40457,-3.576909 -180.76454,-0.666667 -180.76455,-0.666667 -6.20444,-3.647332 c -4.60631,-2.707865 -7.09623,-5.436923 -9.66667,-10.595127 -4.45311,-8.936231 -4.38948,-15.011394 0.25024,-23.892826 3.00536,-5.752919 5.066,-7.813562 10.81892,-10.818922 l 7.10646,-3.7124607 178.84775,0.023151 c 198.30402,0.02567 188.72622,-0.3828219 207.48486,8.8491957 13.718232,6.751383 28.405832,21.438989 35.157212,35.157211 9.23386,18.762375 8.82352,9.110685 8.8492,208.151531 l 0.0231,179.51442 -3.71247,7.10645 c -3.00536,5.75292 -5.066,7.81356 -10.81892,10.81892 -8.88142,4.63972 -14.95658,4.70335 -23.89282,0.25024 z M -270.2314,330.88815 c -10.29211,-3.67614 -16.43062,-11.43944 -17.97928,-22.73824 -1.16026,-8.46495 3.02148,-16.56287 14.03465,-27.17814 28.61444,-27.58054 56.16296,-61.67201 56.16296,-69.50197 0,-2.59378 -5.32141,-6.71979 -8.66667,-6.71979 -4.9446,0 -8.15693,4.08061 -9.15901,11.63467 -3.10279,23.38993 -33.73341,31.16852 -47.56227,12.07833 -4.69028,-6.47472 -5.88697,-13.76452 -4.08452,-24.88109 8.0129,-49.41918 68.82738,-69.02367 104.24581,-33.60524 13.71889,13.71889 20.85,35.31984 17.30208,52.41004 -2.78099,13.39597 -11.7276,29.7072 -26.34415,48.02996 l -7.17953,9 h 7.23854 c 11.08826,0 20.37387,5.36215 25.16392,14.53139 2.14872,4.1131 3.71247,9.22466 3.71247,12.13528 0,2.91061 -1.56375,8.02217 -3.71247,12.13528 -3.00536,5.75292 -5.066,7.81356 -10.81892,10.81892 l -7.10645,3.71246 -40.18108,-0.0585 c -29.59968,-0.0431 -41.46751,-0.51801 -45.06608,-1.80335 z"
       id="path845" />
  </g>
</svg>
