<?xml version="1.0" encoding="UTF-8" standalone="no"?>
<!-- Created with Inkscape (http://www.inkscape.org/) -->

<svg
   version="1.1"
   id="svg2"
   width="223.6348"
   height="223.86383"
   viewBox="0 0 223.6348 223.86383"
   sodipodi:docname="clear_icon.png.svg"
   inkscape:version="1.1.2 (0a00cf5339, 2022-02-04)"
   xmlns:inkscape="http://www.inkscape.org/namespaces/inkscape"
   xmlns:sodipodi="http://sodipodi.sourceforge.net/DTD/sodipodi-0.dtd"
   xmlns="http://www.w3.org/2000/svg"
   xmlns:svg="http://www.w3.org/2000/svg">
  <defs
     id="defs6" />
  <sodipodi:namedview
     id="namedview4"
     pagecolor="#ffffff"
     bordercolor="#666666"
     borderopacity="1.0"
     inkscape:pageshadow="2"
     inkscape:pageopacity="0.0"
     inkscape:pagecheckerboard="0"
     showgrid="false"
     inkscape:zoom="0.38858088"
     inkscape:cx="375.72616"
     inkscape:cy="-142.82741"
     inkscape:window-width="1298"
     inkscape:window-height="704"
     inkscape:window-x="70"
     inkscape:window-y="27"
     inkscape:window-maximized="1"
     inkscape:current-layer="g8" />
  <g
     inkscape:groupmode="layer"
     inkscape:label="Image"
     id="g8"
     transform="translate(577.08932,-169.19731)">
    <path
       style="fill:#000000"
       d="m -478.92465,392.54439 c -26.21571,-3.33212 -49.17315,-15.05439 -67.86129,-34.65056 -14.62478,-15.33538 -23.71768,-32.68491 -28.64412,-54.65382 -2.21234,-9.86568 -2.21234,-34.58492 0,-44.4506 5.27049,-23.50318 14.3487,-40.10089 31.09033,-56.84252 16.74162,-16.74162 33.33933,-25.81983 56.84251,-31.09032 9.86568,-2.21234 34.58492,-2.21234 44.4506,0 23.50318,5.27049 40.10089,14.3487 56.84252,31.09032 16.74162,16.74163 25.81983,33.33934 31.09032,56.84252 2.21234,9.86568 2.21234,34.58492 0,44.4506 -5.27049,23.50318 -14.3487,40.10089 -31.09032,56.84252 -16.75403,16.75402 -34.0276,26.1907 -56.6535,30.9502 -8.80486,1.85216 -27.29199,2.627 -36.06705,1.51166 z m 29.65273,-11.50264 c 55.17369,-8.98056 92.9585,-61.15497 84.02704,-116.02704 -8.98056,-55.17369 -61.15497,-92.95851 -116.02704,-84.02704 -55.17368,8.98056 -92.9585,61.15496 -84.02704,116.02704 7.90859,48.5878 49.88887,84.78844 99.02704,85.39346 4.4,0.0542 12.05,-0.56072 17,-1.36642 z m -13.5,-25.43814 c -7.975,-2.66087 -18.44909,-6.6707 -23.27576,-8.91072 -10.12308,-4.69804 -24.72424,-13.18234 -24.72424,-14.36651 0,-0.73908 5.51381,-11.01147 13.31791,-24.81167 l 3.11029,-5.5 -3.9641,3.17708 c -2.18026,1.7474 -7.77916,7.0349 -12.44202,11.75 -4.66286,4.71511 -8.88699,8.57292 -9.38695,8.57292 -1.35853,0 -15.09061,-12.52467 -18.6255,-16.98784 l -3.0785,-3.88692 10.28444,-7.74633 c 13.49566,-10.16505 24.5868,-20.95062 31.99067,-31.10931 5.49874,-7.54471 6.17741,-8.1369 8.14613,-7.1081 2.33039,1.2178 62.887,36.00628 63.55356,36.51016 0.22325,0.16877 -1.65726,4.69919 -4.17892,10.0676 -8.28872,17.64597 -12.72701,34.69598 -12.72701,48.89173 0,5.41299 -0.26268,6.36352 -1.75,6.33244 -0.9625,-0.0201 -8.275,-2.21365 -16.25,-4.87453 z m 4.51383,-83.88579 c -32.87844,-19.01214 -32.75538,-18.89613 -28.471,-26.83861 3.26297,-6.04897 6.41056,-9.3645 8.89017,-9.3645 1.11567,0 15.19965,7.59864 31.29774,16.88587 33.50447,19.32923 33.03854,18.87878 28.37231,27.42969 -3.32727,6.09725 -6.01015,8.6912 -8.96383,8.6667 -1.17657,-0.01 -15.183,-7.56038 -31.12539,-16.77915 z m 14.31551,-24.62588 -8.67066,-5.13292 10.69283,-18.54998 c 14.44946,-25.06698 13.59181,-23.89433 17.47576,-23.89433 4.35029,0 12.41786,5.13635 13.24522,8.43279 0.50235,2.00152 -1.63378,6.45759 -10.48031,21.86248 -6.1112,10.64171 -11.66947,20.03849 -12.35172,20.88172 -1.08565,1.3418 -2.3226,0.89254 -9.91112,-3.59976 z m 17.08678,-40.80297 c 1.95935,-2.39864 2.95186,-2.85066 5.25,-2.39104 3.66585,0.73317 3.59681,0.0627 -0.19549,-1.89841 -3.75384,-1.94119 -4.39707,-1.55019 -7.48965,4.55271 -2.55033,5.03285 -3.2926,7.93213 -1.17217,4.57851 0.65515,-1.03618 2.27844,-3.21498 3.60731,-4.84177 z"
       id="path858" />
  </g>
</svg>
