<?xml version="1.0" encoding="UTF-8" standalone="no"?>
<!-- Created with Inkscape (http://www.inkscape.org/) -->

<svg
   version="1.1"
   id="svg2"
   width="511.20526"
   height="511.84439"
   viewBox="0 0 511.20526 511.84439"
   sodipodi:docname="distance_icon.svg"
   inkscape:version="1.1.2 (0a00cf5339, 2022-02-04)"
   xmlns:inkscape="http://www.inkscape.org/namespaces/inkscape"
   xmlns:sodipodi="http://sodipodi.sourceforge.net/DTD/sodipodi-0.dtd"
   xmlns="http://www.w3.org/2000/svg"
   xmlns:svg="http://www.w3.org/2000/svg">
  <defs
     id="defs6" />
  <sodipodi:namedview
     id="namedview4"
     pagecolor="#ffffff"
     bordercolor="#666666"
     borderopacity="1.0"
     inkscape:pageshadow="2"
     inkscape:pageopacity="0.0"
     inkscape:pagecheckerboard="0"
     showgrid="false"
     inkscape:zoom="0.35917355"
     inkscape:cx="-285.37736"
     inkscape:cy="268.67234"
     inkscape:window-width="1298"
     inkscape:window-height="704"
     inkscape:window-x="70"
     inkscape:window-y="27"
     inkscape:window-maximized="1"
     inkscape:current-layer="g8" />
  <g
     inkscape:groupmode="layer"
     inkscape:label="Image"
     id="g8"
     transform="translate(-1018.7328,-0.06440277)">
    <path
       style="fill:#000000"
       d="m 1433.0812,509.64937 c -2.75,-1.28211 -5.6176,-3.07771 -6.3725,-3.99023 C 1425.4401,504.12549 1412.4563,504 1255.0467,504 c -144.2523,0 -171.4431,-0.2207 -177.8338,-1.44345 -38.839,-7.43112 -64.6051,-45.16091 -57.2156,-83.78204 5.2072,-27.2156 24.7597,-48.28525 52.4731,-56.54464 5.0037,-1.49124 15.4559,-1.72937 96.6108,-2.20101 l 91,-0.52886 6,-2.40855 c 4.3517,-1.74688 7.8107,-4.21933 12.5914,-9 8.763,-8.76303 11.3219,-14.99889 11.3219,-27.59145 0,-12.59256 -2.5589,-18.82842 -11.3219,-27.59145 -4.7807,-4.78067 -8.2397,-7.25312 -12.5914,-9 l -6,-2.40855 -67.7752,-0.27693 -67.7751,-0.27693 -3.7249,2.90333 c -14.573,11.35886 -35.3074,2.41862 -37.8775,-16.33197 -0.9886,-7.21246 1.2544,-13.2333 7.0973,-19.05138 9.1607,-9.12175 20.8745,-10.03285 30.6912,-2.38714 l 3.6358,2.83177 69.8642,0.31018 69.8642,0.31018 7,2.33311 c 24.6591,8.21892 41.0502,24.77094 48.6581,49.13578 1.909,6.11387 2.3419,9.7178 2.3419,19.5 0,9.7822 -0.4329,13.38613 -2.3419,19.5 -7.5876,24.29989 -24.0724,40.9459 -48.6581,49.13396 l -7,2.33128 -91.5536,0.51738 -91.5535,0.51738 -7.555,3.73472 c -9.0996,4.49825 -14.7696,10.29014 -19.1734,19.58567 -2.8619,6.0408 -3.1645,7.58815 -3.1645,16.17961 0,8.59146 0.3026,10.13881 3.1645,16.17961 4.4044,9.29669 10.0737,15.08752 19.1748,19.58567 l 7.5564,3.73472 171.9728,0.264 c 169.7669,0.26062 171.9996,0.2388 174.0646,-1.70115 1.1505,-1.08084 4.3005,-2.94217 7,-4.13629 10.4867,-4.63879 24.7198,0.73335 30.2436,11.41517 2.1177,4.09527 2.7488,12.38817 1.3437,17.65827 -1.6627,6.23659 -9.8665,14.22021 -16.2689,15.83235 -6.793,1.71049 -10.647,1.42995 -16.2515,-1.18298 z m 3,-63.5198 c -5.0412,-2.30194 -29.9256,-27.82507 -41.1456,-42.20174 -34.9827,-44.82491 -46.7019,-81.53377 -36.8498,-115.42783 8.194,-28.18997 28.4444,-49.71934 55.8709,-59.39969 41.7377,-14.7316 87.3959,4.13484 107.1541,44.27721 6.7888,13.79249 8.7655,22.44294 8.826,38.62248 0.057,15.22754 -1.7776,24.3444 -8.0168,39.84209 -10.7768,26.76887 -34.6485,59.41375 -63.8692,87.34215 -9.6604,9.23316 -13.9734,10.59664 -21.9696,6.94533 z m 13.8839,-111.34569 c 5.9266,-1.75104 13.8472,-9.92258 15.5554,-16.04818 3.2927,-11.8073 -3.5066,-25.20201 -14.8188,-29.19317 -9.2716,-3.2712 -17.2971,-1.34809 -24.7742,5.93648 -17.9968,17.53339 -0.2868,46.49175 24.0376,39.30487 z M 1099.5555,222.04699 c -4.8565,-2.56839 -30.7076,-29.35585 -40.6199,-42.09106 -28.5608,-36.69475 -41.6942,-68.19139 -40.0113,-95.95593 2.263,-37.337125 26.3796,-68.571778 61.6569,-79.8548743 39.9667,-12.7829746 83.4109,5.2646511 103.4253,42.9649813 20.365,38.360926 10.9986,80.507383 -29.4253,132.405913 -10.3638,13.30565 -36.844,40.70754 -41.4509,42.89364 -4.3803,2.07857 -9.2024,1.94974 -13.5748,-0.36267 z m 15.1499,-111.5884 c 8.819,-3.10657 15.8758,-13.089495 15.8758,-22.45859 0,-12.470723 -11.4139,-24 -23.7597,-24 -6.5313,0 -11.5354,2.227275 -16.7742,7.466116 -10.1167,10.116653 -10.1167,22.940165 0,33.078614 7.2137,7.22925 15.3705,9.18554 24.6581,5.91386 z"
       id="path845" />
  </g>
</svg>
