<?xml version="1.0" encoding="UTF-8" standalone="no"?>
<!-- Created with Inkscape (http://www.inkscape.org/) -->

<svg
   version="1.1"
   id="svg2"
   width="546.1333"
   height="546.1333"
   viewBox="0 0 546.1333 546.1333"
   sodipodi:docname="icon_text_red.svg"
   inkscape:version="1.1.2 (0a00cf5339, 2022-02-04)"
   xmlns:inkscape="http://www.inkscape.org/namespaces/inkscape"
   xmlns:sodipodi="http://sodipodi.sourceforge.net/DTD/sodipodi-0.dtd"
   xmlns="http://www.w3.org/2000/svg"
   xmlns:svg="http://www.w3.org/2000/svg">
  <defs
     id="defs6" />
  <sodipodi:namedview
     id="namedview4"
     pagecolor="#ffffff"
     bordercolor="#666666"
     borderopacity="1.0"
     inkscape:pageshadow="2"
     inkscape:pageopacity="0.0"
     inkscape:pagecheckerboard="0"
     showgrid="false"
     inkscape:zoom="0.26297631"
     inkscape:cx="701.58411"
     inkscape:cy="385.96633"
     inkscape:window-width="1298"
     inkscape:window-height="704"
     inkscape:window-x="70"
     inkscape:window-y="27"
     inkscape:window-maximized="1"
     inkscape:current-layer="g8" />
  <g
     inkscape:groupmode="layer"
     inkscape:label="Image"
     id="g8"
     transform="translate(323.05059,179.8354)">
    <path
       style="fill:#ff0000;stroke-width:0.810091"
       d="m -248.32624,307.24448 c -2.42905,-1.20237 -3.87676,-2.66511 -5.06304,-5.11564 -1.57012,-3.24345 -1.66131,-4.87107 -1.66131,-29.65319 0,-24.82073 0.0892,-26.40552 1.66887,-29.6688 2.42597,-5.01141 6.50373,-6.78516 15.59874,-6.78516 h 7.03503 V 101.5471 -32.92749 h -7.32307 c -9.02379,0 -12.88142,-1.62346 -15.34849,-6.45933 -1.53741,-3.01357 -1.63108,-4.73614 -1.63108,-29.99463 0,-25.25849 0.0937,-26.98105 1.63108,-29.99462 1.04984,-2.05785 2.7704,-3.77841 4.82825,-4.82825 3.01357,-1.53741 4.73613,-1.63108 29.99462,-1.63108 25.25849,0 26.98106,0.0937 29.99463,1.63108 4.83587,2.46707 6.45933,6.3247 6.45933,15.34849 v 7.32307 H -47.66809 86.806501 v -7.03503 c 0,-9.09501 1.773752,-13.17277 6.785156,-15.59874 3.263284,-1.57972 4.848073,-1.66887 29.668793,-1.66887 24.82073,0 26.40553,0.0891 29.6688,1.66887 2.50294,1.21165 3.90465,2.61334 5.11629,5.11629 1.57973,3.26327 1.66887,4.84807 1.66887,29.66879 0,24.82072 -0.0892,26.40552 -1.66887,29.6688 -2.42598,5.01141 -6.50373,6.78516 -15.59874,6.78516 h -7.03503 V 101.5471 236.02169 h 7.32307 c 9.02379,0 12.88141,1.62346 15.34849,6.45933 1.53741,3.01357 1.63108,4.73614 1.63108,29.99463 0,25.25849 -0.0937,26.98104 -1.63108,29.99462 -1.04984,2.05785 -2.7704,3.77841 -4.82825,4.82825 -3.01358,1.53741 -4.73614,1.63108 -29.99463,1.63108 -25.25849,0 -26.981049,-0.0937 -29.994616,-1.63108 -4.835878,-2.46708 -6.459333,-6.3247 -6.459333,-15.34849 v -7.32307 H -47.66809 -182.14268 v 7.03503 c 0,9.09501 -1.77375,13.17276 -6.78516,15.59874 -3.26381,1.57999 -4.84684,1.66884 -29.72204,1.66823 -24.97396,-6e-4 -26.44301,-0.084 -29.67636,-1.68448 z M 86.806501,253.00126 c 0,-13.21106 3.768506,-16.97957 16.979569,-16.97957 h 7.32306 V 101.5471 -32.92749 h -7.03502 c -13.209378,0 -17.267609,-4.05823 -17.267609,-17.26762 v -7.03502 H -47.66809 -182.14268 v 7.32307 c 0,9.02379 -1.62346,12.88141 -6.45933,15.34849 -2.50634,1.27864 -4.77953,1.63108 -10.52024,1.63108 h -7.32307 V 101.5471 236.02169 h 7.03502 c 13.20939,0 17.26762,4.05823 17.26762,17.26761 v 7.03502 H -47.66809 86.806501 Z M -89.44942,222.23452 c -3.63022,-1.79696 -6.82395,-6.49783 -6.82395,-10.04421 0,-3.48547 1.63189,-6.4869 13.24937,-24.36885 l 11.05219,-17.01185 5.4e-4,-71.49025 5.4e-4,-71.490258 h -15.53754 -15.53754 l -11.42425,11.255934 c -12.82056,12.631676 -15.45453,14.142874 -21.49586,12.332844 -1.78122,-0.53367 -4.01132,-1.776127 -4.95575,-2.761007 -3.77691,-3.938667 -3.95696,-5.444999 -3.95696,-33.10235 0,-24.696265 0.0896,-26.283288 1.66887,-29.545537 1.21164,-2.502937 2.61335,-3.904638 5.11629,-5.116291 3.41532,-1.653331 4.25715,-1.668869 90.42538,-1.668869 86.168225,0 87.01006,0.01557 90.425386,1.668869 2.502937,1.211653 3.904644,2.613354 5.11629,5.116291 1.579223,3.262249 1.66887,4.849272 1.66887,29.545537 0,27.657351 -0.18006,29.163683 -3.956963,33.10235 -0.94443,0.98488 -3.174525,2.227337 -4.955749,2.761007 -6.041331,1.81003 -8.675297,0.298832 -21.495865,-12.332844 L 7.709626,27.829102 H -7.827909 -23.365451 l 5.39e-4,71.490258 5.47e-4,71.49025 11.052187,17.01185 c 11.617473,17.88195 13.249365,20.88338 13.249365,24.36885 0,3.59348 -3.207166,8.2791 -6.885606,10.05982 -3.202882,1.55049 -5.001369,1.62021 -41.772911,1.6196 -36.90696,-6.2e-4 -38.55647,-0.0653 -41.72809,-1.63521 z"
       id="path845" />
  </g>
</svg>
