<?xml version="1.0" encoding="UTF-8" standalone="no"?>
<!-- Created with Inkscape (http://www.inkscape.org/) -->

<svg
   version="1.1"
   id="svg2"
   width="29.932138"
   height="29.993"
   viewBox="0 0 29.932138 29.993"
   sodipodi:docname="icon_3d.svg"
   inkscape:version="1.1.2 (0a00cf5339, 2022-02-04)"
   xmlns:inkscape="http://www.inkscape.org/namespaces/inkscape"
   xmlns:sodipodi="http://sodipodi.sourceforge.net/DTD/sodipodi-0.dtd"
   xmlns="http://www.w3.org/2000/svg"
   xmlns:svg="http://www.w3.org/2000/svg">
  <defs
     id="defs6">
    <inkscape:path-effect
       effect="powerclip"
       id="path-effect1181"
       is_visible="true"
       lpeversion="1"
       inverse="true"
       flatten="false"
       hide_clip="false"
       message="Use fill-rule evenodd on &lt;b&gt;fill and stroke&lt;/b&gt; dialog if no flatten result after convert clip to paths." />
    <clipPath
       clipPathUnits="userSpaceOnUse"
       id="clipPath1177">
      <rect
         style="display:none;fill:#ff0000;stroke-width:2;stroke-linecap:round;stroke-linejoin:round"
         id="rect1179"
         width="18.505619"
         height="8.7156534"
         x="48.093597"
         y="21.167622"
         d="m 48.093597,21.167622 h 18.505619 v 8.715653 H 48.093597 Z" />
      <path
         id="lpe_path-effect1181"
         style="fill:#ff0000;stroke-width:2;stroke-linecap:round;stroke-linejoin:round"
         class="powerclip"
         d="M 37.614576,-2.0019595 H 77.546714 V 37.99104 H 37.614576 Z M 48.093597,21.167622 v 8.715653 h 18.505619 v -8.715653 z" />
    </clipPath>
  </defs>
  <sodipodi:namedview
     id="namedview4"
     pagecolor="#ffffff"
     bordercolor="#666666"
     borderopacity="1.0"
     inkscape:pageshadow="2"
     inkscape:pageopacity="0.0"
     inkscape:pagecheckerboard="0"
     showgrid="false"
     inkscape:zoom="8.5071665"
     inkscape:cx="11.108281"
     inkscape:cy="9.815254"
     inkscape:window-width="1298"
     inkscape:window-height="704"
     inkscape:window-x="70"
     inkscape:window-y="27"
     inkscape:window-maximized="1"
     inkscape:current-layer="g8" />
  <g
     inkscape:groupmode="layer"
     inkscape:label="Image"
     id="g8"
     transform="translate(-42.614576,-2.9980405)">
    <g
       id="g1548"
       style="fill:#000000">
      <path
         style="fill:#000000;stroke:none;stroke-width:3;stroke-linejoin:round;stroke-miterlimit:4;stroke-dasharray:none;stroke-opacity:1"
         d="m 42.787,32.896746 c -0.07368,-0.0516 -0.150974,-0.171307 -0.171773,-0.266005 -0.02556,-0.116357 0.701331,-3.211159 2.242316,-9.546872 1.924221,-7.911381 2.301151,-9.391769 2.414791,-9.484073 0.123793,-0.10055 0.361471,-0.109376 2.945443,-0.109376 1.545932,0 2.800957,-0.02109 2.788946,-0.04687 -0.01201,-0.02578 -0.179145,-0.370316 -0.37141,-0.765631 C 51.770601,10.899978 51.45995,9.4908232 51.638249,8.1550957 51.95467,5.7846409 53.49096,3.9446078 55.70671,3.2822518 c 2.92914,-0.8756101 5.916412,0.3227729 7.218039,2.8956101 0.39027,0.7714212 0.655115,1.8852823 0.655645,2.7574599 6.25e-4,0.9782241 -0.402112,2.4168782 -1.042098,3.7228592 -0.19904,0.406169 -0.371718,0.759582 -0.383729,0.785364 -0.01201,0.02578 1.243014,0.04687 2.788945,0.04687 2.583973,0 2.821651,0.0088 2.945444,0.109376 0.11364,0.0923 0.49057,1.572692 2.414791,9.484072 1.540984,6.335714 2.267873,9.430512 2.242316,9.546873 -0.08529,0.388325 1.099443,0.359838 -14.965418,0.359838 -12.935071,0 -14.675446,-0.01104 -14.793645,-0.09383 z m 28.642482,-1.015555 c -0.04295,-0.135836 -4.223837,-17.320541 -4.223837,-17.361258 0,-0.01623 -1.273632,-0.02951 -2.830293,-0.02951 h -2.830293 l -0.435332,0.671638 c -1.049048,1.618488 -2.456603,3.416054 -2.850792,3.640701 -0.381846,0.217613 -0.973322,0.218428 -1.353261,0.0019 -0.398407,-0.227089 -1.723058,-1.912146 -2.79983,-3.561598 l -0.491305,-0.752636 h -2.829447 c -1.556196,0 -2.829447,0.01327 -2.829447,0.02951 0,0.04072 -4.180883,17.225423 -4.223837,17.361259 -0.03287,0.103936 0.65502,0.109372 13.848837,0.109372 13.193818,0 13.881706,-0.0054 13.848837,-0.109373 z M 52.018145,29.447397 c -0.374216,-0.06257 -0.958573,-0.295499 -1.30811,-0.521417 -0.701175,-0.453195 -1.203105,-1.109246 -1.480773,-1.935453 -0.160459,-0.477452 -0.160162,-1.524096 5.63e-4,-2.000016 0.275237,-0.814976 0.775441,-1.481315 1.444823,-1.924699 1.336483,-0.885257 3.18254,-0.706125 4.339824,0.421114 0.273474,0.266374 0.316168,0.34096 0.316168,0.552333 0,0.280669 -0.127984,0.42997 -0.418368,0.488047 -0.167384,0.03348 -0.236641,-0.0028 -0.551646,-0.287945 -0.198127,-0.179426 -0.546082,-0.413937 -0.773233,-0.521136 -0.366293,-0.172863 -0.476621,-0.194997 -0.975503,-0.195692 -0.658349,-9.18e-4 -1.058919,0.122405 -1.513444,0.465939 -0.677511,0.512066 -0.987003,1.150439 -0.985772,2.033298 6.94e-4,0.50016 0.02262,0.608773 0.197783,0.979984 0.273906,0.580461 0.628367,0.942753 1.197657,1.224113 0.446249,0.22055 0.505214,0.233386 1.069285,0.232776 0.515641,-5.63e-4 0.645841,-0.02345 0.955478,-0.168011 0.197167,-0.09206 0.494197,-0.303079 0.660066,-0.46895 0.287241,-0.287243 0.659938,-0.932105 0.597292,-1.03347 -0.0162,-0.02623 -0.391391,-0.04769 -0.833742,-0.04769 -0.801824,0 -0.804685,-4.99e-4 -0.938697,-0.170891 -0.161383,-0.205167 -0.131025,-0.490368 0.06996,-0.65724 0.1147,-0.09522 0.277126,-0.109373 1.256061,-0.109373 h 1.124328 l 0.2125,0.212501 c 0.243261,0.243263 0.258996,0.371274 0.114285,0.929738 -0.16114,0.621866 -0.441225,1.099069 -0.926113,1.577894 -0.486911,0.480824 -0.917955,0.723558 -1.549113,0.872354 -0.37185,0.08766 -0.949816,0.110706 -1.301559,0.05189 z m 5.715909,-0.11026 -0.153409,-0.15341 v -3.193208 -3.193207 l 0.153409,-0.153411 c 0.0967,-0.0967 0.224818,-0.15341 0.346591,-0.15341 0.121773,0 0.249889,0.05672 0.346591,0.15341 l 0.153409,0.153411 v 3.193207 3.193208 l -0.153409,0.15341 c -0.0967,0.0967 -0.224818,0.15341 -0.346591,0.15341 -0.121773,0 -0.249889,-0.05671 -0.346591,-0.15341 z m 4.455711,0.08954 c -0.890804,-0.225091 -1.498286,-0.892874 -1.587341,-1.744904 -0.03534,-0.338097 -0.02539,-0.380817 0.1233,-0.529508 0.347754,-0.347757 0.773679,-0.148397 0.86083,0.402925 0.100898,0.63828 0.448301,0.904096 1.181591,0.904096 0.744763,0 1.124045,-0.298009 1.169997,-0.91929 0.04574,-0.618381 -0.190793,-0.818054 -1.359461,-1.147626 -0.83089,-0.234314 -1.322512,-0.479208 -1.590481,-0.792272 -0.577911,-0.675165 -0.512967,-1.789678 0.143069,-2.455242 0.126844,-0.128686 0.413439,-0.321533 0.636876,-0.428546 0.366636,-0.175597 0.464148,-0.194572 1,-0.194572 0.535852,0 0.633364,0.01897 1,0.194572 0.707236,0.338726 1.09,0.858488 1.165721,1.58295 0.03534,0.338097 0.02539,0.380818 -0.1233,0.529508 -0.347754,0.347757 -0.773679,0.148397 -0.86083,-0.402925 -0.100898,-0.638277 -0.448301,-0.904093 -1.181591,-0.904093 -0.702294,0 -1.094739,0.279456 -1.168898,0.832362 -0.07507,0.559665 0.157811,0.757904 1.265007,1.07686 0.893291,0.257334 1.283253,0.453178 1.620701,0.813941 0.649204,0.694056 0.612346,1.888934 -0.07993,2.591266 -0.360839,0.366079 -0.91738,0.599194 -1.496298,0.626742 -0.266381,0.01268 -0.589911,-0.0036 -0.718958,-0.03624 z M 57.949697,17.752213 C 59.005059,16.633231 60.867896,13.841057 61.647822,12.20916 62.63763,10.138112 62.811147,8.7996853 62.291991,7.2403704 61.899156,6.0604718 61.061274,5.1035802 59.918967,4.5302918 59.135879,4.1372835 58.614299,4.0244526 57.580645,4.0244526 c -1.029077,0 -1.534524,0.1084118 -2.323592,0.498383 -1.665534,0.8231351 -2.676659,2.4999434 -2.675115,4.4362983 0.0015,1.8200801 1.440339,4.7368601 3.898384,7.9024461 0.683063,0.879682 0.925954,1.128876 1.100323,1.128876 0.08626,0 0.234781,-0.09588 0.369052,-0.238243 z m -1.070761,-5.358988 c -1.495212,-0.362456 -2.485524,-1.836632 -2.251121,-3.3510135 0.249692,-1.61316 1.792467,-2.753657 3.39036,-2.5063243 1.652666,0.2558109 2.794707,1.8294908 2.504833,3.4515431 -0.306641,1.7158667 -1.967342,2.8122517 -3.644072,2.4057947 z m 1.545459,-1.095296 c 0.395363,-0.187617 0.771757,-0.5621 0.968702,-0.963784 0.21999,-0.4486837 0.21999,-1.2388299 0,-1.6875134 C 59.198056,8.2488315 58.819926,7.8700385 58.422765,7.674599 58.166875,7.5486777 58.017939,7.5216226 57.580645,7.5216226 c -0.626303,0 -0.993197,0.1461585 -1.407895,0.5608597 -1.048506,1.0485149 -0.635662,2.7918917 0.783232,3.3074607 0.39443,0.14332 1.06044,0.101586 1.468413,-0.09201 z"
         id="path845"
         clip-path="url(#clipPath1177)"
         inkscape:path-effect="#path-effect1181"
         inkscape:original-d="m 42.787,32.896746 c -0.07368,-0.0516 -0.150974,-0.171307 -0.171773,-0.266005 -0.02556,-0.116357 0.701331,-3.211159 2.242316,-9.546872 1.924221,-7.911381 2.301151,-9.391769 2.414791,-9.484073 0.123793,-0.10055 0.361471,-0.109376 2.945443,-0.109376 1.545932,0 2.800957,-0.02109 2.788946,-0.04687 -0.01201,-0.02578 -0.179145,-0.370316 -0.37141,-0.765631 C 51.770601,10.899978 51.45995,9.4908232 51.638249,8.1550957 51.95467,5.7846409 53.49096,3.9446078 55.70671,3.2822518 c 2.92914,-0.8756101 5.916412,0.3227729 7.218039,2.8956101 0.39027,0.7714212 0.655115,1.8852823 0.655645,2.7574599 6.25e-4,0.9782241 -0.402112,2.4168782 -1.042098,3.7228592 -0.19904,0.406169 -0.371718,0.759582 -0.383729,0.785364 -0.01201,0.02578 1.243014,0.04687 2.788945,0.04687 2.583973,0 2.821651,0.0088 2.945444,0.109376 0.11364,0.0923 0.49057,1.572692 2.414791,9.484072 1.540984,6.335714 2.267873,9.430512 2.242316,9.546873 -0.08529,0.388325 1.099443,0.359838 -14.965418,0.359838 -12.935071,0 -14.675446,-0.01104 -14.793645,-0.09383 z m 28.642482,-1.015555 c -0.04295,-0.135836 -4.223837,-17.320541 -4.223837,-17.361258 0,-0.01623 -1.273632,-0.02951 -2.830293,-0.02951 h -2.830293 l -0.435332,0.671638 c -1.049048,1.618488 -2.456603,3.416054 -2.850792,3.640701 -0.381846,0.217613 -0.973322,0.218428 -1.353261,0.0019 -0.398407,-0.227089 -1.723058,-1.912146 -2.79983,-3.561598 l -0.491305,-0.752636 h -2.829447 c -1.556196,0 -2.829447,0.01327 -2.829447,0.02951 0,0.04072 -4.180883,17.225423 -4.223837,17.361259 -0.03287,0.103936 0.65502,0.109372 13.848837,0.109372 13.193818,0 13.881706,-0.0054 13.848837,-0.109373 z M 52.018145,29.447397 c -0.374216,-0.06257 -0.958573,-0.295499 -1.30811,-0.521417 -0.701175,-0.453195 -1.203105,-1.109246 -1.480773,-1.935453 -0.160459,-0.477452 -0.160162,-1.524096 5.63e-4,-2.000016 0.275237,-0.814976 0.775441,-1.481315 1.444823,-1.924699 1.336483,-0.885257 3.18254,-0.706125 4.339824,0.421114 0.273474,0.266374 0.316168,0.34096 0.316168,0.552333 0,0.280669 -0.127984,0.42997 -0.418368,0.488047 -0.167384,0.03348 -0.236641,-0.0028 -0.551646,-0.287945 -0.198127,-0.179426 -0.546082,-0.413937 -0.773233,-0.521136 -0.366293,-0.172863 -0.476621,-0.194997 -0.975503,-0.195692 -0.658349,-9.18e-4 -1.058919,0.122405 -1.513444,0.465939 -0.677511,0.512066 -0.987003,1.150439 -0.985772,2.033298 6.94e-4,0.50016 0.02262,0.608773 0.197783,0.979984 0.273906,0.580461 0.628367,0.942753 1.197657,1.224113 0.446249,0.22055 0.505214,0.233386 1.069285,0.232776 0.515641,-5.63e-4 0.645841,-0.02345 0.955478,-0.168011 0.197167,-0.09206 0.494197,-0.303079 0.660066,-0.46895 0.287241,-0.287243 0.659938,-0.932105 0.597292,-1.03347 -0.0162,-0.02623 -0.391391,-0.04769 -0.833742,-0.04769 -0.801824,0 -0.804685,-4.99e-4 -0.938697,-0.170891 -0.161383,-0.205167 -0.131025,-0.490368 0.06996,-0.65724 0.1147,-0.09522 0.277126,-0.109373 1.256061,-0.109373 h 1.124328 l 0.2125,0.212501 c 0.243261,0.243263 0.258996,0.371274 0.114285,0.929738 -0.16114,0.621866 -0.441225,1.099069 -0.926113,1.577894 -0.486911,0.480824 -0.917955,0.723558 -1.549113,0.872354 -0.37185,0.08766 -0.949816,0.110706 -1.301559,0.05189 z m 5.715909,-0.11026 -0.153409,-0.15341 v -3.193208 -3.193207 l 0.153409,-0.153411 c 0.0967,-0.0967 0.224818,-0.15341 0.346591,-0.15341 0.121773,0 0.249889,0.05672 0.346591,0.15341 l 0.153409,0.153411 v 3.193207 3.193208 l -0.153409,0.15341 c -0.0967,0.0967 -0.224818,0.15341 -0.346591,0.15341 -0.121773,0 -0.249889,-0.05671 -0.346591,-0.15341 z m 4.455711,0.08954 c -0.890804,-0.225091 -1.498286,-0.892874 -1.587341,-1.744904 -0.03534,-0.338097 -0.02539,-0.380817 0.1233,-0.529508 0.347754,-0.347757 0.773679,-0.148397 0.86083,0.402925 0.100898,0.63828 0.448301,0.904096 1.181591,0.904096 0.744763,0 1.124045,-0.298009 1.169997,-0.91929 0.04574,-0.618381 -0.190793,-0.818054 -1.359461,-1.147626 -0.83089,-0.234314 -1.322512,-0.479208 -1.590481,-0.792272 -0.577911,-0.675165 -0.512967,-1.789678 0.143069,-2.455242 0.126844,-0.128686 0.413439,-0.321533 0.636876,-0.428546 0.366636,-0.175597 0.464148,-0.194572 1,-0.194572 0.535852,0 0.633364,0.01897 1,0.194572 0.707236,0.338726 1.09,0.858488 1.165721,1.58295 0.03534,0.338097 0.02539,0.380818 -0.1233,0.529508 -0.347754,0.347757 -0.773679,0.148397 -0.86083,-0.402925 -0.100898,-0.638277 -0.448301,-0.904093 -1.181591,-0.904093 -0.702294,0 -1.094739,0.279456 -1.168898,0.832362 -0.07507,0.559665 0.157811,0.757904 1.265007,1.07686 0.893291,0.257334 1.283253,0.453178 1.620701,0.813941 0.649204,0.694056 0.612346,1.888934 -0.07993,2.591266 -0.360839,0.366079 -0.91738,0.599194 -1.496298,0.626742 -0.266381,0.01268 -0.589911,-0.0036 -0.718958,-0.03624 z M 57.949697,17.752213 C 59.005059,16.633231 60.867896,13.841057 61.647822,12.20916 62.63763,10.138112 62.811147,8.7996853 62.291991,7.2403704 61.899156,6.0604718 61.061274,5.1035802 59.918967,4.5302918 59.135879,4.1372835 58.614299,4.0244526 57.580645,4.0244526 c -1.029077,0 -1.534524,0.1084118 -2.323592,0.498383 -1.665534,0.8231351 -2.676659,2.4999434 -2.675115,4.4362983 0.0015,1.8200801 1.440339,4.7368601 3.898384,7.9024461 0.683063,0.879682 0.925954,1.128876 1.100323,1.128876 0.08626,0 0.234781,-0.09588 0.369052,-0.238243 z m -1.070761,-5.358988 c -1.495212,-0.362456 -2.485524,-1.836632 -2.251121,-3.3510135 0.249692,-1.61316 1.792467,-2.753657 3.39036,-2.5063243 1.652666,0.2558109 2.794707,1.8294908 2.504833,3.4515431 -0.306641,1.7158667 -1.967342,2.8122517 -3.644072,2.4057947 z m 1.545459,-1.095296 c 0.395363,-0.187617 0.771757,-0.5621 0.968702,-0.963784 0.21999,-0.4486837 0.21999,-1.2388299 0,-1.6875134 C 59.198056,8.2488315 58.819926,7.8700385 58.422765,7.674599 58.166875,7.5486777 58.017939,7.5216226 57.580645,7.5216226 c -0.626303,0 -0.993197,0.1461585 -1.407895,0.5608597 -1.048506,1.0485149 -0.635662,2.7918917 0.783232,3.3074607 0.39443,0.14332 1.06044,0.101586 1.468413,-0.09201 z" />
      <text
         xml:space="preserve"
         style="font-style:normal;font-variant:normal;font-weight:normal;font-stretch:normal;font-size:13.3333px;line-height:1.25;font-family:sans-serif;-inkscape-font-specification:sans-serif;fill:#000000;stroke:none;stroke-width:3;stroke-linejoin:round;stroke-miterlimit:4;stroke-dasharray:none;stroke-opacity:1"
         x="48.091736"
         y="30.848043"
         id="text3321"><tspan
           sodipodi:role="line"
           id="tspan3319"
           x="48.091736"
           y="30.848043"
           style="font-style:normal;font-variant:normal;font-weight:normal;font-stretch:normal;font-family:sans-serif;-inkscape-font-specification:sans-serif;fill:#000000;stroke:none;stroke-width:3;stroke-linejoin:round;stroke-miterlimit:4;stroke-dasharray:none;stroke-opacity:1">3D</tspan></text>
    </g>
  </g>
</svg>
