<?xml version="1.0" encoding="UTF-8"?>
<svg xmlns="http://www.w3.org/2000/svg" xmlns:xlink="http://www.w3.org/1999/xlink" width="40" height="40" viewBox="0 0 40 40" version="1.1">
<g id="surface1">
<path style=" stroke:none;fill-rule:nonzero;fill:rgb(0%,0%,0%);fill-opacity:1;" d="M 5.828125 39.917969 C 4.925781 39.675781 4.183594 39.140625 3.695312 38.382812 C 3.101562 37.464844 3.140625 38.6875 3.167969 22.183594 L 3.191406 7.414062 L 3.480469 6.824219 C 3.859375 6.0625 4.410156 5.511719 5.171875 5.132812 L 5.757812 4.84375 L 8.421875 4.84375 C 11.4375 4.84375 11.34375 4.824219 11.675781 5.492188 C 11.992188 6.132812 11.734375 6.863281 11.089844 7.15625 C 10.800781 7.285156 10.546875 7.300781 8.617188 7.300781 C 6.210938 7.304688 6.074219 7.328125 5.792969 7.855469 C 5.65625 8.109375 5.652344 8.722656 5.652344 22.417969 C 5.652344 36.453125 5.652344 36.722656 5.804688 36.96875 C 5.886719 37.105469 6.050781 37.28125 6.171875 37.359375 C 6.375 37.492188 7.011719 37.5 20.027344 37.5 C 33.039062 37.5 33.675781 37.492188 33.878906 37.359375 C 34 37.28125 34.164062 37.105469 34.246094 36.96875 C 34.398438 36.722656 34.398438 36.453125 34.402344 22.417969 C 34.402344 8.722656 34.394531 8.109375 34.257812 7.855469 C 33.976562 7.328125 33.84375 7.304688 31.410156 7.304688 C 29.402344 7.304688 29.214844 7.292969 28.933594 7.148438 C 28.132812 6.738281 28 5.753906 28.664062 5.109375 L 28.941406 4.84375 L 34.292969 4.84375 L 34.878906 5.132812 C 35.644531 5.511719 36.195312 6.0625 36.570312 6.824219 L 36.863281 7.414062 L 36.882812 22.183594 C 36.910156 38.6875 36.949219 37.46875 36.359375 38.378906 C 35.84375 39.175781 35.140625 39.675781 34.191406 39.921875 C 33.535156 40.089844 6.460938 40.085938 5.828125 39.917969 Z M 12.640625 31.726562 C 12.222656 31.542969 11.980469 31.175781 11.980469 30.726562 C 11.980469 30.246094 12.144531 29.949219 12.53125 29.734375 C 12.820312 29.570312 12.855469 29.570312 20.019531 29.570312 C 27.933594 29.570312 27.445312 29.539062 27.875 30.050781 C 28.066406 30.277344 28.085938 30.351562 28.054688 30.753906 C 28.019531 31.261719 27.828125 31.542969 27.390625 31.726562 C 27.027344 31.882812 12.996094 31.878906 12.640625 31.726562 Z M 12.839844 23.574219 C 12.5625 23.523438 12.230469 23.265625 12.09375 23.003906 C 11.933594 22.695312 11.949219 22.15625 12.125 21.867188 C 12.449219 21.339844 12.046875 21.367188 20.027344 21.367188 C 26.480469 21.367188 27.257812 21.378906 27.492188 21.492188 C 28.226562 21.839844 28.277344 22.917969 27.585938 23.410156 L 27.332031 23.59375 L 20.183594 23.601562 C 16.25 23.609375 12.945312 23.59375 12.839844 23.574219 Z M 12.472656 15.195312 C 11.792969 14.785156 11.820312 13.644531 12.519531 13.285156 C 12.726562 13.175781 13.613281 13.164062 20.027344 13.164062 C 28.054688 13.164062 27.601562 13.132812 27.917969 13.65625 C 28.238281 14.175781 28.042969 14.964844 27.53125 15.230469 C 27.328125 15.335938 26.4375 15.351562 20.011719 15.351562 C 12.917969 15.351562 12.714844 15.34375 12.472656 15.195312 Z M 14.582031 6.996094 C 14.050781 6.671875 13.871094 6.046875 14.164062 5.527344 C 14.445312 5.027344 14.636719 4.960938 15.730469 4.960938 L 16.6875 4.960938 L 16.632812 4.707031 C 16.386719 3.535156 16.441406 2.875 16.863281 2.019531 C 17.535156 0.644531 19.085938 -0.15625 20.578125 0.101562 C 21.730469 0.296875 22.695312 1.007812 23.1875 2.019531 C 23.609375 2.875 23.664062 3.535156 23.417969 4.707031 L 23.367188 4.960938 L 24.320312 4.960938 C 25.417969 4.960938 25.605469 5.027344 25.886719 5.527344 C 26.179688 6.046875 26.003906 6.671875 25.472656 6.996094 C 25.230469 7.140625 25.039062 7.148438 20.027344 7.148438 C 15.015625 7.148438 14.820312 7.140625 14.582031 6.996094 Z M 21.742188 4.753906 C 21.984375 4.441406 22.15625 3.765625 22.09375 3.375 C 21.976562 2.636719 21.578125 2.078125 20.933594 1.734375 C 20.480469 1.496094 19.574219 1.496094 19.117188 1.734375 C 18.476562 2.074219 18.066406 2.652344 17.949219 3.371094 C 17.890625 3.75 18.070312 4.445312 18.3125 4.753906 L 18.476562 4.960938 L 21.578125 4.960938 Z M 21.742188 4.753906 "/>
</g>
</svg>
