<?xml version="1.0" encoding="UTF-8"?>
<svg xmlns="http://www.w3.org/2000/svg" xmlns:xlink="http://www.w3.org/1999/xlink" width="40" height="40" viewBox="0 0 40 40" version="1.1">
<g id="surface1">
<path style=" stroke:none;fill-rule:nonzero;fill:rgb(0%,0%,0%);fill-opacity:1;" d="M 19.449219 36.96875 C 17.726562 36.59375 16.449219 35.660156 15.691406 34.21875 C 15.101562 33.097656 15.101562 31.113281 15.691406 30.007812 C 16.621094 28.253906 18.246094 27.25 20.148438 27.25 C 22.085938 27.25 23.664062 28.25 24.476562 30 C 25.640625 32.496094 24.492188 35.621094 22.050781 36.609375 C 21.324219 36.90625 20 37.085938 19.449219 36.96875 Z M 19.449219 24.96875 C 17.722656 24.59375 16.441406 23.652344 15.699219 22.21875 C 15.113281 21.085938 15.109375 19.097656 15.6875 18.007812 C 16.625 16.25 18.253906 15.246094 20.15625 15.257812 C 22.113281 15.269531 23.664062 16.253906 24.476562 18 C 25.640625 20.496094 24.492188 23.621094 22.050781 24.609375 C 21.324219 24.90625 20 25.085938 19.449219 24.96875 Z M 19.214844 12.886719 C 16.863281 12.453125 15.285156 10.539062 15.269531 8.105469 C 15.253906 5.351562 17.378906 3.242188 20.15625 3.257812 C 22.113281 3.269531 23.664062 4.253906 24.476562 6 C 26.175781 9.648438 23.148438 13.613281 19.214844 12.886719 Z M 19.214844 12.886719 "/>
</g>
</svg>
