<?xml version="1.0" encoding="UTF-8"?>
<svg xmlns="http://www.w3.org/2000/svg" xmlns:xlink="http://www.w3.org/1999/xlink" width="40" height="40" viewBox="0 0 40 40" version="1.1">
<g id="surface1">
<path style=" stroke:none;fill-rule:nonzero;fill:rgb(100%,100%,100%);fill-opacity:1;" d="M 5.328125 35.335938 C 5.148438 35.246094 5.042969 35.140625 4.957031 34.960938 C 4.839844 34.722656 4.835938 34.605469 4.835938 32.789062 C 4.835938 30.972656 4.839844 30.855469 4.957031 30.617188 C 5.132812 30.25 5.433594 30.117188 6.097656 30.117188 L 6.613281 30.117188 L 6.613281 10.421875 L 6.078125 10.421875 C 5.417969 10.421875 5.132812 10.300781 4.953125 9.949219 C 4.839844 9.726562 4.835938 9.601562 4.835938 7.75 C 4.835938 5.902344 4.839844 5.773438 4.953125 5.554688 C 5.03125 5.402344 5.15625 5.277344 5.308594 5.199219 C 5.527344 5.085938 5.652344 5.082031 7.503906 5.082031 C 9.355469 5.082031 9.480469 5.085938 9.699219 5.199219 C 10.054688 5.378906 10.175781 5.664062 10.175781 6.324219 L 10.175781 6.859375 L 29.871094 6.859375 L 29.871094 6.34375 C 29.871094 5.679688 30.003906 5.378906 30.371094 5.203125 C 30.609375 5.085938 30.722656 5.082031 32.542969 5.082031 C 34.359375 5.082031 34.476562 5.085938 34.714844 5.203125 C 34.898438 5.292969 35 5.394531 35.089844 5.578125 C 35.207031 5.816406 35.210938 5.933594 35.210938 7.75 C 35.210938 9.570312 35.207031 9.683594 35.089844 9.921875 C 34.914062 10.289062 34.613281 10.421875 33.949219 10.421875 L 33.433594 10.421875 L 33.433594 30.117188 L 33.96875 30.117188 C 34.628906 30.117188 34.914062 30.238281 35.09375 30.59375 C 35.207031 30.8125 35.210938 30.9375 35.210938 32.789062 C 35.210938 34.640625 35.207031 34.765625 35.09375 34.984375 C 35.015625 35.136719 34.890625 35.261719 34.738281 35.339844 C 34.519531 35.453125 34.390625 35.457031 32.542969 35.457031 C 30.691406 35.457031 30.566406 35.453125 30.34375 35.339844 C 29.992188 35.160156 29.871094 34.875 29.871094 34.214844 L 29.871094 33.679688 L 10.175781 33.679688 L 10.175781 34.195312 C 10.175781 34.859375 10.042969 35.160156 9.675781 35.335938 C 9.4375 35.453125 9.320312 35.457031 7.5 35.457031 C 5.671875 35.457031 5.5625 35.453125 5.328125 35.335938 Z M 29.871094 31.363281 C 29.871094 30.394531 30.148438 30.117188 31.117188 30.117188 L 31.652344 30.117188 L 31.652344 10.421875 L 31.136719 10.421875 C 30.167969 10.421875 29.871094 10.125 29.871094 9.15625 L 29.871094 8.640625 L 10.175781 8.640625 L 10.175781 9.175781 C 10.175781 9.835938 10.054688 10.121094 9.699219 10.300781 C 9.515625 10.394531 9.351562 10.421875 8.929688 10.421875 L 8.394531 10.421875 L 8.394531 30.117188 L 8.910156 30.117188 C 9.875 30.117188 10.175781 30.417969 10.175781 31.382812 L 10.175781 31.898438 L 29.871094 31.898438 Z M 16.964844 29.109375 C 16.695312 28.976562 16.464844 28.632812 16.464844 28.375 C 16.464844 28.117188 16.582031 27.898438 17.433594 26.589844 L 18.242188 25.34375 L 18.242188 14.871094 L 15.96875 14.871094 L 15.128906 15.695312 C 14.191406 16.621094 14 16.730469 13.554688 16.597656 C 13.425781 16.558594 13.261719 16.46875 13.191406 16.394531 C 12.917969 16.109375 12.902344 15.996094 12.902344 13.972656 C 12.902344 12.164062 12.910156 12.046875 13.027344 11.808594 C 13.113281 11.625 13.21875 11.523438 13.398438 11.433594 C 13.648438 11.3125 13.710938 11.3125 20.023438 11.3125 C 26.335938 11.3125 26.394531 11.3125 26.644531 11.433594 C 26.828125 11.523438 26.933594 11.625 27.019531 11.808594 C 27.136719 12.046875 27.144531 12.164062 27.144531 13.972656 C 27.144531 15.996094 27.128906 16.109375 26.851562 16.394531 C 26.785156 16.46875 26.621094 16.558594 26.492188 16.597656 C 26.046875 16.730469 25.855469 16.621094 24.914062 15.695312 L 24.078125 14.871094 L 21.804688 14.871094 L 21.804688 25.34375 L 22.613281 26.589844 C 23.464844 27.898438 23.582031 28.117188 23.582031 28.375 C 23.582031 28.636719 23.347656 28.980469 23.078125 29.109375 C 22.84375 29.222656 22.710938 29.230469 20.019531 29.230469 C 17.316406 29.230469 17.195312 29.222656 16.964844 29.109375 Z M 16.964844 29.109375 "/>
</g>
</svg>
