<?xml version="1.0" encoding="UTF-8"?>
<svg xmlns="http://www.w3.org/2000/svg" xmlns:xlink="http://www.w3.org/1999/xlink" width="40" height="40" viewBox="0 0 40 40" version="1.1">
<g id="surface1">
<path style=" stroke:none;fill-rule:nonzero;fill:rgb(0%,0%,0%);fill-opacity:1;" d="M 11.980469 39.648438 C 3.355469 38.578125 -0.613281 36.574219 0.078125 33.636719 C 0.507812 31.792969 4.386719 29.988281 9.390625 29.304688 C 11.511719 29.011719 11.574219 29.019531 12.136719 29.570312 C 13.433594 30.851562 12.582031 31.613281 9.101562 32.277344 C 6.636719 32.746094 3.597656 33.792969 3.597656 34.175781 C 3.597656 34.617188 4.859375 35.238281 6.832031 35.769531 C 10.707031 36.804688 12.78125 37 20 37 C 27.21875 37 29.292969 36.804688 33.167969 35.769531 C 35.140625 35.238281 36.402344 34.617188 36.402344 34.175781 C 36.402344 33.78125 33.3125 32.734375 30.707031 32.246094 C 27.316406 31.613281 26.539062 30.878906 27.863281 29.570312 C 28.425781 29.019531 28.488281 29.011719 30.609375 29.304688 C 35.59375 29.984375 39.492188 31.792969 39.921875 33.621094 C 40.625 36.621094 36.644531 38.59375 27.746094 39.664062 C 23.96875 40.117188 15.695312 40.109375 11.980469 39.648438 Z M 15.035156 33.765625 C 14.605469 33.386719 14.53125 32.65625 14.53125 28.667969 L 14.53125 24.019531 L 13.214844 24.019531 C 10.882812 24.019531 10.839844 23.902344 10.945312 17.863281 L 11.039062 12.621094 L 12.03125 11.828125 L 13.023438 11.039062 L 19.632812 10.964844 C 26.128906 10.890625 26.261719 10.898438 27.292969 11.457031 C 29.011719 12.378906 29.105469 12.71875 29.109375 18.082031 C 29.113281 23.78125 29.023438 24.019531 26.816406 24.019531 L 25.46875 24.019531 L 25.46875 28.710938 C 25.46875 32.949219 25.414062 33.445312 24.914062 33.808594 C 24.449219 34.140625 23.625 34.207031 19.949219 34.207031 C 16.0625 34.207031 15.480469 34.15625 15.035156 33.765625 Z M 17.414062 9.734375 C 15.226562 8.941406 13.625 6.980469 13.625 5.09375 C 13.625 2.417969 16.648438 0 20 0 C 23.351562 0 26.375 2.417969 26.375 5.09375 C 26.375 8.695312 21.503906 11.21875 17.414062 9.734375 Z M 17.414062 9.734375 "/>
</g>
</svg>
