<svg xmlns="http://www.w3.org/2000/svg" width="800px" height="800px" viewBox="0 0 24 24" fill="none">
  <path d="M12 16C14.2091 16 16 14.2091 16 12C16 9.79086 14.2091 8 12 8C9.79086 8 8 9.79086 8 12C8 14.2091 9.79086 16 12 16Z" stroke="black" stroke-width="1.5" stroke-linecap="round" stroke-linejoin="round"/>
  <path d="M3 16.8V19.2C3 19.6774 3.1896 20.1352 3.52721 20.4728C3.86483 20.8104 4.32262 21 4.8 21H7.2" stroke="black" stroke-width="1.5" stroke-linecap="round" stroke-linejoin="round"/>
  <path d="M16.8 21H19.2C19.6774 21 20.1352 20.8104 20.4728 20.4728C20.8104 20.1352 21 19.6774 21 19.2V16.8" stroke="black" stroke-width="1.5" stroke-linecap="round" stroke-linejoin="round"/>
  <path d="M21 7.2V4.8C21 4.32261 20.8104 3.86477 20.4728 3.52716C20.1352 3.18955 19.6774 3 19.2 3H16.8" stroke="black" stroke-width="1.5" stroke-linecap="round" stroke-linejoin="round"/>
  <path d="M7.2 3H4.8C4.32262 3 3.86483 3.18955 3.52721 3.52716C3.1896 3.86477 3 4.32261 3 4.8V7.2" stroke="black" stroke-width="1.5" stroke-linecap="round" stroke-linejoin="round"/>
</svg>