<?xml version="1.0" encoding="UTF-8" standalone="no"?>
<svg
   width="20"
   height="20"
   version="1.1"
   id="svg4"
   sodipodi:docname="icon_polygon_white.svg"
   inkscape:version="1.1.2 (0a00cf5339, 2022-02-04)"
   xmlns:inkscape="http://www.inkscape.org/namespaces/inkscape"
   xmlns:sodipodi="http://sodipodi.sourceforge.net/DTD/sodipodi-0.dtd"
   xmlns="http://www.w3.org/2000/svg"
   xmlns:svg="http://www.w3.org/2000/svg">
  <defs
     id="defs8" />
  <sodipodi:namedview
     id="namedview6"
     pagecolor="#ffffff"
     bordercolor="#666666"
     borderopacity="1.0"
     inkscape:pageshadow="2"
     inkscape:pageopacity="0.0"
     inkscape:pagecheckerboard="0"
     showgrid="false"
     inkscape:zoom="22.4"
     inkscape:cx="9.9776786"
     inkscape:cy="10.022321"
     inkscape:window-width="1298"
     inkscape:window-height="704"
     inkscape:window-x="70"
     inkscape:window-y="27"
     inkscape:window-maximized="1"
     inkscape:current-layer="svg4" />
  <path
     d="m15 12.3v-4.6c.6-.3 1-1 1-1.7 0-1.1-.9-2-2-2-.7 0-1.4.4-1.7 1h-4.6c-.3-.6-1-1-1.7-1-1.1 0-2 .9-2 2 0 .7.4 1.4 1 1.7v4.6c-.6.3-1 1-1 1.7 0 1.1.9 2 2 2 .7 0 1.4-.4 1.7-1h4.6c.3.6 1 1 1.7 1 1.1 0 2-.9 2-2 0-.7-.4-1.4-1-1.7zm-8-.3v-4l1-1h4l1 1v4l-1 1h-4z"
     id="path2"
     style="fill:#ffffff" />
</svg>
