<?xml version="1.0" encoding="UTF-8" standalone="no"?>
<!-- Created with Inkscape (http://www.inkscape.org/) -->

<svg
   version="1.1"
   id="svg2"
   width="464.27686"
   height="383.46124"
   viewBox="0 0 464.27686 383.46124"
   sodipodi:docname="open_icon.png.svg"
   inkscape:version="1.1.2 (0a00cf5339, 2022-02-04)"
   xmlns:inkscape="http://www.inkscape.org/namespaces/inkscape"
   xmlns:sodipodi="http://sodipodi.sourceforge.net/DTD/sodipodi-0.dtd"
   xmlns="http://www.w3.org/2000/svg"
   xmlns:svg="http://www.w3.org/2000/svg">
  <defs
     id="defs6" />
  <sodipodi:namedview
     id="namedview4"
     pagecolor="#ffffff"
     bordercolor="#666666"
     borderopacity="1.0"
     inkscape:pageshadow="2"
     inkscape:pageopacity="0.0"
     inkscape:pagecheckerboard="0"
     showgrid="false"
     inkscape:zoom="0.28962252"
     inkscape:cx="448.86012"
     inkscape:cy="-46.612398"
     inkscape:window-width="1298"
     inkscape:window-height="704"
     inkscape:window-x="70"
     inkscape:window-y="27"
     inkscape:window-maximized="1"
     inkscape:current-layer="g8" />
  <g
     inkscape:groupmode="layer"
     inkscape:label="Image"
     id="g8"
     transform="translate(580.47729,-202.8165)">
    <path
       style="fill:#000000"
       d="m -544.68151,584.48323 c -16.9034,-4.41254 -30.68831,-18.65182 -34.40621,-35.54027 -1.39509,-6.33717 -1.53804,-24.57029 -1.29072,-164.62646 l 0.27812,-157.5 2.61982,-5.58648 c 3.33005,-7.101 8.6927,-12.46365 15.7937,-15.7937 l 5.58648,-2.61982 h 68 68 l 7.5,2.33889 c 12.63767,3.94107 17.17799,7.22718 37.5,27.14106 20.65631,20.24147 24.44615,23.47205 32,27.27788 12.34169,6.21805 11.2571,6.11271 69,6.70163 l 53,0.54054 5.58648,2.61982 c 7.101,3.33005 12.46365,8.6927 15.7937,15.7937 2.50372,5.33892 2.63423,6.4617 2.94488,25.33648 l 0.32506,19.75 h -16.07506 -16.07506 v -15.93376 -15.93376 l -50.25,-0.38884 c -56.74088,-0.43906 -58.10722,-0.59729 -75.48702,-8.74174 -12.70765,-5.95501 -19.86526,-11.60458 -41.35749,-32.64389 -17.75845,-17.38422 -20.1062,-19.34013 -24.93634,-20.77453 -4.61144,-1.36945 -13.62015,-1.58348 -66.65065,-1.58348 h -61.3185 v 153.85212 153.85211 l 2.2738,3.37409 c 3.40808,5.05726 8.25846,7.92168 13.41392,7.92168 8.1726,0 18.22692,-7.08808 22.8406,-16.10215 1.29554,-2.53119 17.27023,-41.90619 35.4993,-87.5 18.22908,-45.59382 33.88335,-84.47285 34.78727,-86.39785 2.30692,-4.91281 8.79102,-11.10494 14.68511,-14.02386 l 5,-2.47614 h 140 140 l 5.21376,2.35756 c 6.22244,2.81365 13.59221,10.35067 16.54966,16.92521 1.50389,3.34322 2.12613,6.75615 2.13626,11.71723 0.014,6.86671 -0.60193,8.54239 -32.34709,88 -17.79875,44.55 -33.47958,83.25 -34.84627,86 -6.04975,12.17302 -17.05329,22.73618 -29.7521,28.56139 -13.4688,6.17842 -6.5732,5.94423 -173.16206,5.88096 -140.15283,-0.0532 -152.2968,-0.18938 -158.37335,-1.77562 z"
       id="path981" />
  </g>
</svg>
