<?xml version="1.0" encoding="UTF-8" standalone="no"?>
<!-- Created with Inkscape (http://www.inkscape.org/) -->

<svg
   version="1.1"
   id="svg2"
   width="131.68694"
   height="164.85634"
   viewBox="0 0 131.68694 164.85634"
   sodipodi:docname="icon_street_view_white.svg"
   inkscape:version="1.1.2 (0a00cf5339, 2022-02-04)"
   xmlns:inkscape="http://www.inkscape.org/namespaces/inkscape"
   xmlns:sodipodi="http://sodipodi.sourceforge.net/DTD/sodipodi-0.dtd"
   xmlns="http://www.w3.org/2000/svg"
   xmlns:svg="http://www.w3.org/2000/svg">
  <defs
     id="defs6" />
  <sodipodi:namedview
     id="namedview4"
     pagecolor="#ffffff"
     bordercolor="#666666"
     borderopacity="1.0"
     inkscape:pageshadow="2"
     inkscape:pageopacity="0.0"
     inkscape:pagecheckerboard="0"
     showgrid="false"
     inkscape:zoom="0.76850517"
     inkscape:cx="11.060433"
     inkscape:cy="14.964115"
     inkscape:window-width="1298"
     inkscape:window-height="704"
     inkscape:window-x="70"
     inkscape:window-y="27"
     inkscape:window-maximized="1"
     inkscape:current-layer="g8" />
  <g
     inkscape:groupmode="layer"
     inkscape:label="Image"
     id="g8"
     transform="translate(5.3283457,-121.89838)">
    <path
       style="fill:#ffffff;stroke:none"
       d="M 34.116198,285.30974 C 5.714446,280.89406 -7.347108,272.63576 -5.07606,260.53003 c 1.425571,-7.59894 14.194623,-15.03756 30.660148,-17.86109 6.99205,-1.199 7.19656,-1.17398 9.04323,1.10656 4.27119,5.27469 1.4617,8.40675 -9.99562,11.14326 -8.110574,1.93716 -18.11499,6.26163 -18.11499,7.83033 0,1.82685 4.156693,4.38864 10.65177,6.56474 12.75783,4.27436 19.58503,5.0734 43.34823,5.0734 23.7632,0 30.5904,-0.79904 43.348232,-5.0734 6.49508,-2.1761 10.65177,-4.73789 10.65177,-6.56474 0,-1.62989 -10.16917,-5.93899 -18.757082,-7.94817 -11.1572,-2.61027 -13.72079,-5.63208 -9.35353,-11.02542 1.84667,-2.28054 2.05118,-2.30556 9.04323,-1.10656 16.397762,2.81191 29.235442,10.26673 30.648192,17.79736 2.31808,12.3564 -10.78142,20.49586 -40.080812,24.90447 -12.43569,1.87116 -39.67864,1.83913 -51.90051,-0.061 z m 10.0555,-24.25125 c -1.41884,-1.5678 -1.65499,-4.56427 -1.65499,-21 v -19.17126 h -4.34501 c -7.67537,0 -7.81389,-0.47109 -7.46098,-25.37351 l 0.30599,-21.59229 3.26716,-3.2671 3.26715,-3.2671 21.75723,-0.30239 c 21.37867,-0.29712 21.81745,-0.2618 25.21828,2.03002 5.65303,3.80958 5.95918,5.20827 5.97544,27.29986 0.0173,23.50362 -0.2813,24.47251 -7.54196,24.47251 h -4.4433 v 19.34501 c 0,17.47114 -0.17714,19.50533 -1.82874,21 -1.52487,1.37999 -4.24079,1.65499 -16.34501,1.65499 -12.79314,0 -14.71273,-0.21708 -16.17126,-1.82874 z m 7.83643,-99.03625 c -7.20649,-3.27383 -12.48027,-11.35971 -12.48027,-19.13501 0,-11.03019 9.95867,-20.98885 20.98885,-20.98885 11.03018,0 20.98885,9.95866 20.98885,20.98885 0,14.84683 -16.03691,25.25 -29.49743,19.13501 z"
       id="path845"
       inkscape:export-filename="/home/aquiles/Desktop/ebsig/public/images/path845.png"
       inkscape:export-xdpi="96"
       inkscape:export-ydpi="96" />
  </g>
</svg>
