<?xml version="1.0" encoding="UTF-8"?>
<svg xmlns="http://www.w3.org/2000/svg" xmlns:xlink="http://www.w3.org/1999/xlink" width="40" height="40" viewBox="0 0 40 40" version="1.1">
<g id="surface1">
<path style=" stroke:none;fill-rule:nonzero;fill:rgb(0%,0%,0%);fill-opacity:1;" d="M 18.164062 39.914062 C 15.148438 39.628906 12.132812 38.625 9.570312 37.054688 C 6.996094 35.476562 4.515625 32.996094 2.9375 30.421875 C -0.660156 24.550781 -0.972656 17.21875 2.113281 11.054688 C 3.738281 7.8125 6.46875 4.839844 9.570312 2.9375 C 15.441406 -0.660156 22.777344 -0.972656 28.941406 2.113281 C 32.1875 3.734375 35.160156 6.46875 37.0625 9.570312 C 40.660156 15.4375 40.972656 22.769531 37.886719 28.933594 C 36.261719 32.179688 33.53125 35.152344 30.429688 37.054688 C 26.796875 39.28125 22.359375 40.316406 18.164062 39.914062 Z M 22.164062 36.757812 C 25.894531 36.28125 29.203125 34.640625 31.925781 31.917969 C 35.195312 28.648438 36.886719 24.585938 36.886719 19.996094 C 36.886719 15.40625 35.195312 11.339844 31.925781 8.070312 C 28.65625 4.804688 24.589844 3.113281 20 3.113281 C 15.410156 3.113281 11.34375 4.804688 8.074219 8.070312 C 4.804688 11.339844 3.113281 15.40625 3.113281 19.996094 C 3.113281 24.585938 4.804688 28.648438 8.074219 31.917969 C 10.761719 34.605469 14.074219 36.265625 17.734375 36.753906 C 18.855469 36.902344 21.027344 36.90625 22.164062 36.757812 Z M 19.296875 28.964844 C 18.910156 28.757812 18.636719 28.414062 18.515625 27.976562 C 18.46875 27.808594 18.4375 26.414062 18.4375 24.550781 L 18.4375 21.40625 L 15.082031 21.386719 L 11.726562 21.363281 L 11.394531 21.128906 C 10.558594 20.539062 10.484375 19.398438 11.238281 18.71875 C 11.699219 18.304688 11.972656 18.277344 15.390625 18.277344 L 18.4375 18.277344 L 18.4375 15.128906 C 18.4375 13.175781 18.46875 11.871094 18.519531 11.6875 C 18.617188 11.339844 18.988281 10.894531 19.328125 10.714844 C 19.640625 10.554688 20.359375 10.554688 20.671875 10.714844 C 21.011719 10.894531 21.382812 11.339844 21.480469 11.6875 C 21.53125 11.871094 21.5625 13.175781 21.5625 15.128906 L 21.5625 18.277344 L 24.609375 18.277344 C 28.027344 18.277344 28.300781 18.304688 28.761719 18.71875 C 29.515625 19.398438 29.441406 20.539062 28.605469 21.128906 L 28.273438 21.363281 L 24.921875 21.386719 L 21.570312 21.40625 L 21.546875 24.707031 C 21.523438 27.964844 21.523438 28.011719 21.347656 28.339844 C 20.960938 29.058594 20.015625 29.347656 19.296875 28.964844 Z M 19.296875 28.964844 "/>
</g>
</svg>
