<?xml version="1.0" encoding="UTF-8" standalone="no"?>
<!-- Created with Inkscape (http://www.inkscape.org/) -->

<svg
   version="1.1"
   id="svg2"
   width="545.75189"
   height="545.88922"
   viewBox="0 0 545.75189 545.88922"
   sodipodi:docname="add.png"
   inkscape:version="1.1.2 (0a00cf5339, 2022-02-04)"
   xmlns:inkscape="http://www.inkscape.org/namespaces/inkscape"
   xmlns:sodipodi="http://sodipodi.sourceforge.net/DTD/sodipodi-0.dtd"
   xmlns="http://www.w3.org/2000/svg"
   xmlns:svg="http://www.w3.org/2000/svg">
  <defs
     id="defs6" />
  <sodipodi:namedview
     id="namedview4"
     pagecolor="#ffffff"
     bordercolor="#666666"
     borderopacity="1.0"
     inkscape:pageshadow="2"
     inkscape:pageopacity="0.0"
     inkscape:pagecheckerboard="0"
     showgrid="false"
     inkscape:zoom="0.10253907"
     inkscape:cx="19.504761"
     inkscape:cy="-404.72378"
     inkscape:window-width="1298"
     inkscape:window-height="704"
     inkscape:window-x="70"
     inkscape:window-y="27"
     inkscape:window-maximized="1"
     inkscape:current-layer="g8" />
  <g
     inkscape:groupmode="layer"
     inkscape:label="Image"
     id="g8"
     transform="translate(-44.945156,-875.82814)">
    <path
       style="fill:#000000;stroke-width:1.06667"
       d="m 292.75444,1420.5671 c -41.12294,-3.9209 -82.26181,-17.6283 -117.21035,-39.0542 -35.13888,-21.5427 -68.98913,-55.3929 -90.531758,-90.5318 -49.092681,-80.0767 -53.348987,-180.1656 -11.238888,-264.2874 22.155444,-44.25905 59.430906,-84.84111 101.770646,-110.79838 80.07667,-49.09268 180.16559,-53.34899 264.28737,-11.23889 44.2591,22.15544 84.84116,59.43091 110.79843,101.77067 49.09269,80.0766 53.34898,180.1656 11.23889,264.2873 -22.15545,44.2591 -59.43091,84.8412 -101.77065,110.7985 -49.56618,30.3876 -110.09208,44.5129 -167.34369,39.0542 z m 54.61203,-43.0775 c 50.88322,-6.5261 96.04076,-28.9266 133.17715,-66.063 44.60462,-44.6046 67.67748,-100.0806 67.67748,-162.7225 0,-62.6419 -23.07286,-118.1179 -67.67748,-162.72251 -44.60463,-44.60463 -100.08058,-67.67748 -162.72251,-67.67748 -62.64193,0 -118.11788,23.07285 -162.72251,67.67748 -44.60462,44.60461 -67.677474,100.08061 -67.677474,162.72251 0,62.6419 23.072854,118.1179 67.677474,162.7225 36.67519,36.6752 81.89415,59.3085 131.78918,65.9641 15.29955,2.0408 44.95956,2.0893 60.47869,0.099 z m -39.14536,-106.381 c -5.2708,-2.8148 -8.99759,-7.5318 -10.64957,-13.479 -0.63579,-2.289 -1.07428,-21.3077 -1.07781,-46.749 l -0.006,-42.8902 -45.77634,-0.3098 -45.77633,-0.3098 -4.52867,-3.2 c -11.41192,-8.0638 -12.40952,-23.5824 -2.11393,-32.8839 6.25248,-5.6487 10.00544,-6.0495 56.64777,-6.0495 h 41.5475 l 0.006,-42.9333 c 0.003,-26.6677 0.42985,-44.4598 1.12485,-46.9625 1.32228,-4.7615 6.38883,-10.8557 11.02753,-13.2643 4.28262,-2.2236 14.06737,-2.2236 18.34999,0 4.6387,2.4086 9.70525,8.5028 11.02753,13.2643 0.695,2.5027 1.12117,20.2948 1.12486,46.9625 l 0.006,42.9333 h 41.5475 c 46.64233,0 50.39529,0.4008 56.64777,6.0495 10.29559,9.3015 9.29799,24.8201 -2.11393,32.8839 l -4.52867,3.2 -45.73285,0.3097 -45.73286,0.3097 -0.31015,45.0236 c -0.30635,44.4733 -0.33973,45.079 -2.73121,49.5558 -5.24843,9.8248 -18.18085,13.7717 -27.97893,8.539 z"
       id="path845" />
  </g>
</svg>
