<?xml version="1.0" encoding="UTF-8" standalone="no"?>
<!-- Created with Inkscape (http://www.inkscape.org/) -->

<svg
   version="1.1"
   id="svg2"
   width="546.1333"
   height="546.1333"
   viewBox="0 0 546.1333 546.1333"
   sodipodi:docname="icon_text_white.svg"
   inkscape:version="1.1.2 (0a00cf5339, 2022-02-04)"
   xmlns:inkscape="http://www.inkscape.org/namespaces/inkscape"
   xmlns:sodipodi="http://sodipodi.sourceforge.net/DTD/sodipodi-0.dtd"
   xmlns="http://www.w3.org/2000/svg"
   xmlns:svg="http://www.w3.org/2000/svg">
  <defs
     id="defs6" />
  <sodipodi:namedview
     id="namedview4"
     pagecolor="#ffffff"
     bordercolor="#666666"
     borderopacity="1.0"
     inkscape:pageshadow="2"
     inkscape:pageopacity="0.0"
     inkscape:pagecheckerboard="0"
     showgrid="false"
     inkscape:zoom="0.26297631"
     inkscape:cx="382.1637"
     inkscape:cy="385.96633"
     inkscape:window-width="1298"
     inkscape:window-height="704"
     inkscape:window-x="70"
     inkscape:window-y="27"
     inkscape:window-maximized="1"
     inkscape:current-layer="g8" />
  <g
     inkscape:groupmode="layer"
     inkscape:label="Image"
     id="g8"
     transform="translate(323.05059,179.8354)">
    <path
       style="fill:#ffffff;stroke-width:0.810091"
       d="m -250.32623,302.61248 c -2.42905,-1.20237 -3.87676,-2.66511 -5.06304,-5.11565 -1.57013,-3.24345 -1.66132,-4.87106 -1.66132,-29.65321 0,-24.82074 0.0892,-26.40553 1.66887,-29.66882 2.42598,-5.0114 6.50374,-6.78516 15.59875,-6.78516 h 7.03503 V 96.91496 -37.559718 h -7.32307 c -9.0238,0 -12.88143,-1.623456 -15.3485,-6.459334 -1.53741,-3.013567 -1.63108,-4.736139 -1.63108,-29.994649 0,-25.258499 0.0937,-26.981069 1.63108,-29.994629 1.04984,-2.05786 2.77041,-3.77842 4.82826,-4.82826 3.01357,-1.53741 4.73613,-1.63108 29.99464,-1.63108 25.2585,0 26.98107,0.0937 29.99464,1.63108 4.83588,2.46707 6.45934,6.3247 6.45934,15.348501 v 7.323069 H -49.66795 84.806725 v -7.03503 c 0,-9.09502 1.773753,-13.17277 6.785161,-15.59875 3.263286,-1.57973 4.848078,-1.66887 29.668814,-1.66887 24.82074,0 26.40554,0.0892 29.66881,1.66887 2.50295,1.21165 3.90466,2.61334 5.1163,5.1163 1.57973,3.26327 1.66887,4.848067 1.66887,29.668799 0,24.820742 -0.0892,26.405541 -1.66887,29.668819 -2.42598,5.01142 -6.50374,6.785164 -15.59875,6.785164 h -7.03503 V 96.91496 231.38964 h 7.32307 c 9.0238,0 12.88142,1.62346 15.3485,6.45934 1.53741,3.01357 1.63108,4.73613 1.63108,29.99464 0,25.25851 -0.0937,26.98107 -1.63108,29.99464 -1.04984,2.05785 -2.7704,3.77842 -4.82826,4.82826 -3.01357,1.53741 -4.73613,1.63108 -29.99464,1.63108 -25.258503,0 -26.981068,-0.0937 -29.994637,-1.63108 -4.835882,-2.46708 -6.459338,-6.3247 -6.459338,-15.3485 v -7.32307 H -49.66795 -184.14263 v 7.03503 c 0,9.09501 -1.77376,13.17276 -6.78517,15.59875 -3.2638,1.57999 -4.84684,1.66884 -29.72206,1.66823 -24.97397,-6e-4 -26.44302,-0.084 -29.67637,-1.68448 z M 84.806725,248.36923 c 0,-13.21108 3.768508,-16.97959 16.979585,-16.97959 h 7.32306 V 96.91496 -37.559718 h -7.03502 c -13.209391,0 -17.267625,-4.058232 -17.267625,-17.267627 v -7.035023 H -49.66795 -184.14263 v 7.32307 c 0,9.023802 -1.62346,12.881423 -6.45934,15.3485 -2.50634,1.278646 -4.77953,1.63108 -10.52025,1.63108 h -7.32307 V 96.91496 231.38964 h 7.03503 c 13.20939,0 17.26763,4.05824 17.26763,17.26763 v 7.03502 H -49.66795 84.806725 Z M -91.44931,217.60246 c -3.63022,-1.79696 -6.82396,-6.49784 -6.82396,-10.04422 0,-3.48546 1.6319,-6.4869 13.24938,-24.36886 l 11.0522,-17.01186 5.4e-4,-71.4903 5.4e-4,-71.490303 h -15.53755 -15.53755 l -11.42425,11.255942 c -12.82058,12.631681 -15.45455,14.142881 -21.49588,12.332851 -1.78123,-0.53367 -4.01132,-1.77613 -4.95576,-2.76101 -3.7769,-3.93867 -3.95696,-5.445 -3.95696,-33.10237 0,-24.696281 0.0896,-26.283305 1.66887,-29.545556 1.21165,-2.502938 2.61336,-3.90464 5.11629,-5.116294 3.41533,-1.653332 4.25716,-1.668871 90.42545,-1.668871 86.168277,0 87.010113,0.01557 90.425442,1.668871 2.502938,1.211654 3.904646,2.613356 5.116293,5.116294 1.579224,3.262251 1.668871,4.849275 1.668871,29.545556 0,27.65737 -0.180061,29.1637 -3.956966,33.10237 -0.944431,0.98488 -3.174526,2.22734 -4.955752,2.76101 -6.041335,1.81003 -8.675303,0.29883 -21.495879,-12.332851 L 5.709799,23.196917 H -9.827747 -25.365299 l 5.39e-4,71.490303 5.47e-4,71.4903 11.052194,17.01186 c 11.617481,17.88196 13.249374,20.8834 13.249374,24.36886 0,3.59349 -3.207168,8.27912 -6.88561,10.05983 -3.202885,1.55049 -5.001373,1.62022 -41.772935,1.6196 -36.90699,-6.1e-4 -38.5565,-0.0653 -41.72812,-1.63521 z"
       id="path845" />
  </g>
</svg>
