<?xml version="1.0" encoding="UTF-8" standalone="no"?>
<svg
   width="20"
   height="20"
   version="1.1"
   id="svg4"
   sodipodi:docname="icon_line_red.svg"
   inkscape:version="1.1.2 (0a00cf5339, 2022-02-04)"
   xmlns:inkscape="http://www.inkscape.org/namespaces/inkscape"
   xmlns:sodipodi="http://sodipodi.sourceforge.net/DTD/sodipodi-0.dtd"
   xmlns="http://www.w3.org/2000/svg"
   xmlns:svg="http://www.w3.org/2000/svg">
  <defs
     id="defs8" />
  <sodipodi:namedview
     id="namedview6"
     pagecolor="#ffffff"
     bordercolor="#666666"
     borderopacity="1.0"
     inkscape:pageshadow="2"
     inkscape:pageopacity="0.0"
     inkscape:pagecheckerboard="0"
     showgrid="false"
     inkscape:zoom="22.4"
     inkscape:cx="9.9776786"
     inkscape:cy="10.022321"
     inkscape:window-width="1298"
     inkscape:window-height="704"
     inkscape:window-x="70"
     inkscape:window-y="27"
     inkscape:window-maximized="1"
     inkscape:current-layer="svg4" />
  <path
     d="m13.5 3.5c-1.4 0-2.5 1.1-2.5 2.5 0 .3 0 .6.2.9l-3.8 3.8c-.3-.1-.6-.2-.9-.2-1.4 0-2.5 1.1-2.5 2.5s1.1 2.5 2.5 2.5 2.5-1.1 2.5-2.5c0-.3 0-.6-.2-.9l3.8-3.8c.3.1.6.2.9.2 1.4 0 2.5-1.1 2.5-2.5s-1.1-2.5-2.5-2.5z"
     id="path2"
     style="fill:#ff0000" />
</svg>
