<?xml version="1.0" encoding="UTF-8" standalone="no"?>
<!-- Created with Inkscape (http://www.inkscape.org/) -->

<svg
   version="1.1"
   id="svg2"
   width="195.84"
   height="195.84"
   viewBox="0 0 195.84 195.84"
   sodipodi:docname="icon_photo.svg"
   inkscape:version="1.1.2 (0a00cf5339, 2022-02-04)"
   xmlns:inkscape="http://www.inkscape.org/namespaces/inkscape"
   xmlns:sodipodi="http://sodipodi.sourceforge.net/DTD/sodipodi-0.dtd"
   xmlns="http://www.w3.org/2000/svg"
   xmlns:svg="http://www.w3.org/2000/svg">
  <defs
     id="defs6" />
  <sodipodi:namedview
     id="namedview4"
     pagecolor="#ffffff"
     bordercolor="#666666"
     borderopacity="1.0"
     inkscape:pageshadow="2"
     inkscape:pageopacity="0.0"
     inkscape:pagecheckerboard="0"
     showgrid="false"
     inkscape:zoom="0.83610202"
     inkscape:cx="51.42913"
     inkscape:cy="84.319853"
     inkscape:window-width="1298"
     inkscape:window-height="704"
     inkscape:window-x="70"
     inkscape:window-y="27"
     inkscape:window-maximized="1"
     inkscape:current-layer="g8" />
  <g
     inkscape:groupmode="layer"
     inkscape:label="Image"
     id="g8">
    <path
       style="fill:#000000;stroke-width:0.32"
       d="m 49.989161,147.92519 c -3.747744,-0.62885 -7.169293,-3.31021 -8.963408,-7.02434 l -1.004749,-2.08 -0.08615,-31.30104 c -0.09356,-33.994859 -0.148999,-32.796379 1.659811,-35.882879 1.086586,-1.85412 3.419069,-3.91629 5.570288,-4.92474 1.815203,-0.85094 1.82064,-0.85141 11.69993,-1.01134 l 9.883881,-0.16 0.448179,-1.75275 c 1.368116,-5.35047 5.177408,-9.46673 10.383904,-11.22067 1.901936,-0.64071 2.566522,-0.66052 21.355343,-0.63641 12.75299,0.0164 19.82991,0.14272 20.67049,0.36906 1.98181,0.53365 4.66509,2.00173 6.3084,3.45146 2.44409,2.15618 5.06592,6.91213 5.06592,9.18947 v 0.72615 l 10,0.0969 10,0.0968 1.84584,0.86497 c 2.37744,1.11409 5.13511,3.87175 6.24919,6.24919 l 0.86497,1.84584 v 31.999999 32 l -1.01941,2.15193 c -1.83462,3.8728 -5.15921,6.36425 -9.28939,6.96145 -2.64803,0.38289 -99.358501,0.37429 -101.643042,-0.009 z m 57.648259,-10.41441 c 11.45265,-2.36561 20.57724,-11.22351 23.80968,-23.11379 0.98596,-3.62674 0.98658,-11.32098 0.001,-14.97704 -2.24488,-8.32936 -6.87601,-14.6855 -13.92387,-19.110289 -5.00562,-3.14258 -10.46114,-4.68881 -16.5435,-4.68881 -4.191574,0 -7.271034,0.55343 -11.116324,1.99778 -4.03142,1.51426 -7.089464,3.45649 -10.394818,6.601959 -5.996682,5.70662 -9.336614,12.90049 -9.765523,21.03391 -0.780349,14.79785 8.77024,27.9063 23.276661,31.94789 4.25068,1.18426 9.846044,1.302 14.656414,0.30839 z m -9.066084,-10.06699 c -4.66779,-0.60171 -8.50677,-2.53318 -12.00706,-6.04101 -7.111922,-7.12721 -8.174571,-17.96947 -2.57007,-26.22247 3.95947,-5.83057 10.99595,-9.30624 18.068584,-8.92498 5.15402,0.27784 9.48428,2.24686 13.28167,6.03932 2.3936,2.3905 3.90839,4.74144 5.08309,7.88891 1.08157,2.89794 1.36283,8.53026 0.57954,11.60555 -2.57472,10.10877 -12.38058,16.95086 -22.435754,15.65468 z M 151.05434,84.77661 c 0.95265,-0.95266 1.25432,-2.49345 1.04927,-5.359289 -0.12485,-1.74489 -0.31884,-2.39635 -0.89674,-3.01151 l -0.73743,-0.78496 h -8.06877 c -9.93008,0 -9.52249,-0.16752 -9.69298,3.98385 -0.24728,6.021329 -0.42084,5.916439 9.80785,5.927639 7.77441,0.009 7.77456,0.009 8.5388,-0.75573 z"
       id="path845" />
  </g>
</svg>
