<?xml version="1.0" encoding="UTF-8" standalone="no"?>
<!-- Created with Inkscape (http://www.inkscape.org/) -->

<svg
   version="1.1"
   id="svg2"
   width="512"
   height="512"
   viewBox="0 0 512 512"
   sodipodi:docname="form.png"
   inkscape:version="1.1.2 (0a00cf5339, 2022-02-04)"
   xmlns:inkscape="http://www.inkscape.org/namespaces/inkscape"
   xmlns:sodipodi="http://sodipodi.sourceforge.net/DTD/sodipodi-0.dtd"
   xmlns="http://www.w3.org/2000/svg"
   xmlns:svg="http://www.w3.org/2000/svg">
  <defs
     id="defs6" />
  <sodipodi:namedview
     id="namedview4"
     pagecolor="#ffffff"
     bordercolor="#666666"
     borderopacity="1.0"
     inkscape:pageshadow="2"
     inkscape:pageopacity="0.0"
     inkscape:pagecheckerboard="0"
     showgrid="false"
     inkscape:zoom="0.30935922"
     inkscape:cx="168.08938"
     inkscape:cy="117.98582"
     inkscape:window-width="1298"
     inkscape:window-height="704"
     inkscape:window-x="70"
     inkscape:window-y="27"
     inkscape:window-maximized="1"
     inkscape:current-layer="g8" />
  <g
     inkscape:groupmode="layer"
     inkscape:label="Image"
     id="g8">
    <path
       style="fill:#000000"
       d="m 74.594457,510.94279 c -11.541547,-3.10828 -21.031146,-9.93542 -27.307234,-19.64574 -7.590558,-11.74407 -7.080467,3.9226 -6.751586,-207.36472 l 0.29427,-189.052051 3.718409,-7.5235 c 4.830493,-9.77359 11.879668,-16.82302 21.653211,-21.65399 l 7.522722,-3.71841 h 34.052831 c 38.61531,0 37.42706,-0.23726 41.66063,8.31844 4.04554,8.17569 0.74499,17.52768 -7.50887,21.27613 -3.67497,1.66897 -6.9449,1.86378 -31.61453,1.88347 -30.828184,0.0246 -32.552517,0.36243 -36.157138,7.083621 -1.750659,3.2643 -1.827108,11.07983 -1.823527,186.42274 0.0037,179.6404 0.03967,183.07453 1.952259,186.21127 1.071688,1.75761 3.187715,4.00761 4.702284,5 2.627657,1.7217 10.748791,1.80433 177.341732,1.80433 166.59293,0 174.71406,-0.0826 177.34172,-1.80433 1.51457,-0.99239 3.6306,-3.24239 4.70228,-5 1.91259,-3.13674 1.94859,-6.57087 1.95226,-186.21127 0.004,-175.34291 -0.0729,-183.15844 -1.82353,-186.42274 -3.61259,-6.736061 -5.29305,-7.061661 -36.44697,-7.061661 -25.72588,0 -28.09532,-0.14788 -31.68138,-1.97736 -10.28792,-5.2485 -11.96496,-17.86172 -3.46953,-26.09473 l 3.53717,-3.42791 h 34.24682 34.24682 l 7.52272,3.71841 c 9.77354,4.83097 16.82272,11.8804 21.65321,21.65399 l 3.71841,7.5235 0.29427,189.052051 c 0.32885,211.27002 0.83704,195.6459 -6.74354,207.33091 -6.60002,10.17353 -15.58382,16.56214 -27.74403,19.72947 -8.36603,2.17908 -354.942493,2.13142 -363.042163,-0.0499 z M 161.78033,406.07778 c -5.33143,-2.32222 -8.45042,-7.034 -8.45042,-12.76583 0,-6.15678 2.10134,-9.95421 7.04608,-12.73331 3.70722,-2.08358 4.19641,-2.09426 95.88974,-2.09426 101.3002,0 95.03898,-0.38397 100.55064,6.16627 2.43056,2.88856 2.67952,3.86247 2.3063,9.02222 -0.46914,6.48572 -2.91033,10.05413 -8.51063,12.44039 -4.68284,1.99533 -184.24677,1.9616 -188.83171,-0.0355 z m 2.56268,-104.32001 c -3.52537,-0.67276 -7.78997,-3.94122 -9.52819,-7.30257 -2.05361,-3.97125 -1.86454,-10.83601 0.40077,-14.55086 4.11291,-6.7447 -1.00178,-6.41996 101.11433,-6.41996 82.59755,0 92.55025,0.16727 95.58311,1.60646 9.36411,4.44357 10.02867,18.25476 1.18198,24.5647 l -3.26509,2.32884 -91.5,0.12399 c -50.325,0.0682 -92.61912,-0.0896 -93.98691,-0.3506 z m -4.71455,-107.23291 c -8.67664,-5.29045 -8.31477,-19.87801 0.60757,-24.49193 2.64065,-1.36553 13.99756,-1.54855 96.09389,-1.54855 102.77095,0 96.97992,-0.36099 101.04048,6.29855 4.06725,6.6705 1.58729,16.7741 -4.9466,20.1529 -2.64094,1.36568 -14.01216,1.54811 -96.29422,1.54481 -90.77204,-0.004 -93.3864,-0.0566 -96.50112,-1.95578 z M 186.63425,89.528389 c -6.80776,-4.15095 -9.07065,-12.12898 -5.32871,-18.78685 3.58222,-6.3737 6.02347,-7.25716 20.05367,-7.25716 h 12.22071 l -0.68428,-3.25 c -3.15432,-14.98152 -2.43282,-23.41879 2.94122,-34.39466 8.61001,-17.58498 28.45989,-27.8259 47.57964,-24.54722 14.72641,2.5253 27.06216,11.58965 33.40648,24.54722 5.37404,10.97587 6.09554,19.41314 2.94122,34.39466 l -0.68428,3.25 h 12.22071 c 14.0302,0 16.47144,0.88346 20.05366,7.25716 3.74194,6.65787 1.47905,14.6359 -5.3287,18.78685 -3.08295,1.87979 -5.54133,1.94852 -69.69567,1.94852 -64.15434,0 -66.61272,-0.0687 -69.69567,-1.94852 z m 91.64097,-28.70159 c 3.11565,-3.96091 5.34572,-12.62637 4.53692,-17.62927 -1.52634,-9.44118 -6.60402,-16.61551 -14.84777,-20.97859 -5.83786,-3.08975 -17.43104,-3.08975 -23.2689,0 -8.19354,4.3365 -13.45396,11.71248 -14.92818,20.93176 -0.77881,4.87039 1.54651,13.77218 4.61733,17.6761 l 2.09046,2.65758 h 19.85484 19.85484 z"
       id="path845" />
  </g>
</svg>
