<?xml version="1.0" encoding="UTF-8"?>
<svg xmlns="http://www.w3.org/2000/svg" xmlns:xlink="http://www.w3.org/1999/xlink" width="40" height="40" viewBox="0 0 40 40" version="1.1">
<g id="surface1">
<path style=" stroke:none;fill-rule:nonzero;fill:rgb(100%,0%,0%);fill-opacity:1;" d="M 5.472656 35.675781 C 5.296875 35.585938 5.1875 35.480469 5.101562 35.300781 C 4.988281 35.0625 4.980469 34.941406 4.980469 33.128906 C 4.980469 31.308594 4.988281 31.195312 5.101562 30.957031 C 5.28125 30.589844 5.578125 30.457031 6.246094 30.457031 L 6.761719 30.457031 L 6.761719 10.761719 L 6.222656 10.761719 C 5.5625 10.761719 5.28125 10.640625 5.101562 10.285156 C 4.988281 10.066406 4.980469 9.941406 4.980469 8.089844 C 4.980469 6.238281 4.988281 6.113281 5.101562 5.894531 C 5.175781 5.742188 5.304688 5.617188 5.453125 5.539062 C 5.675781 5.425781 5.800781 5.421875 7.652344 5.421875 C 9.5 5.421875 9.625 5.425781 9.847656 5.539062 C 10.203125 5.71875 10.320312 6.003906 10.320312 6.664062 L 10.320312 7.199219 L 30.019531 7.199219 L 30.019531 6.683594 C 30.019531 6.019531 30.148438 5.71875 30.515625 5.542969 C 30.753906 5.425781 30.871094 5.421875 32.6875 5.421875 C 34.507812 5.421875 34.621094 5.425781 34.863281 5.542969 C 35.046875 5.632812 35.148438 5.734375 35.238281 5.917969 C 35.351562 6.15625 35.359375 6.273438 35.359375 8.089844 C 35.359375 9.90625 35.351562 10.023438 35.238281 10.261719 C 35.058594 10.628906 34.761719 10.761719 34.09375 10.761719 L 33.578125 10.761719 L 33.578125 30.457031 L 34.113281 30.457031 C 34.777344 30.457031 35.058594 30.578125 35.238281 30.929688 C 35.351562 31.152344 35.359375 31.277344 35.359375 33.128906 C 35.359375 34.976562 35.351562 35.105469 35.238281 35.324219 C 35.164062 35.476562 35.035156 35.601562 34.886719 35.679688 C 34.664062 35.792969 34.539062 35.796875 32.6875 35.796875 C 30.839844 35.796875 30.710938 35.792969 30.492188 35.679688 C 30.136719 35.5 30.019531 35.214844 30.019531 34.554688 L 30.019531 34.019531 L 10.320312 34.019531 L 10.320312 34.535156 C 10.320312 35.199219 10.191406 35.5 9.824219 35.675781 C 9.585938 35.792969 9.46875 35.796875 7.648438 35.796875 C 5.816406 35.796875 5.710938 35.792969 5.472656 35.675781 Z M 30.019531 31.703125 C 30.019531 30.734375 30.292969 30.457031 31.261719 30.457031 L 31.796875 30.457031 L 31.796875 10.761719 L 31.285156 10.761719 C 30.316406 10.761719 30.019531 10.460938 30.019531 9.496094 L 30.019531 8.980469 L 10.320312 8.980469 L 10.320312 9.515625 C 10.320312 10.175781 10.203125 10.460938 9.847656 10.640625 C 9.664062 10.734375 9.496094 10.761719 9.078125 10.761719 L 8.539062 10.761719 L 8.539062 30.457031 L 9.054688 30.457031 C 10.023438 30.457031 10.320312 30.753906 10.320312 31.722656 L 10.320312 32.238281 L 30.019531 32.238281 Z M 17.109375 29.449219 C 16.84375 29.316406 16.609375 28.972656 16.609375 28.710938 C 16.609375 28.457031 16.730469 28.238281 17.578125 26.929688 L 18.390625 25.683594 L 18.390625 15.210938 L 16.113281 15.210938 L 15.277344 16.035156 C 14.335938 16.960938 14.144531 17.070312 13.703125 16.9375 C 13.570312 16.898438 13.410156 16.808594 13.339844 16.734375 C 13.0625 16.445312 13.050781 16.335938 13.050781 14.3125 C 13.050781 12.503906 13.054688 12.386719 13.171875 12.148438 C 13.261719 11.964844 13.363281 11.859375 13.546875 11.773438 C 13.796875 11.652344 13.859375 11.648438 20.167969 11.648438 C 26.480469 11.648438 26.542969 11.652344 26.792969 11.773438 C 26.976562 11.859375 27.078125 11.964844 27.167969 12.148438 C 27.28125 12.386719 27.289062 12.503906 27.289062 14.3125 C 27.289062 16.335938 27.277344 16.445312 27 16.734375 C 26.929688 16.808594 26.765625 16.898438 26.636719 16.9375 C 26.195312 17.070312 26 16.960938 25.0625 16.035156 L 24.226562 15.210938 L 21.949219 15.210938 L 21.949219 25.683594 L 22.757812 26.929688 C 23.609375 28.238281 23.730469 28.457031 23.730469 28.710938 C 23.730469 28.976562 23.496094 29.320312 23.226562 29.449219 C 22.992188 29.5625 22.859375 29.566406 20.164062 29.566406 C 17.460938 29.566406 17.339844 29.5625 17.109375 29.449219 Z M 17.109375 29.449219 "/>
</g>
</svg>
