<?xml version="1.0" encoding="UTF-8" standalone="no"?>
<!-- Created with Inkscape (http://www.inkscape.org/) -->

<svg
   version="1.1"
   id="svg2"
   width="511.32767"
   height="511.15353"
   viewBox="0 0 511.32767 511.15353"
   sodipodi:docname="icon_save_white.svg"
   inkscape:version="1.1.2 (0a00cf5339, 2022-02-04)"
   xmlns:inkscape="http://www.inkscape.org/namespaces/inkscape"
   xmlns:sodipodi="http://sodipodi.sourceforge.net/DTD/sodipodi-0.dtd"
   xmlns="http://www.w3.org/2000/svg"
   xmlns:svg="http://www.w3.org/2000/svg">
  <defs
     id="defs6" />
  <sodipodi:namedview
     id="namedview4"
     pagecolor="#ffffff"
     bordercolor="#666666"
     borderopacity="1.0"
     inkscape:pageshadow="2"
     inkscape:pageopacity="0.0"
     inkscape:pagecheckerboard="0"
     showgrid="false"
     inkscape:zoom="0.25629486"
     inkscape:cx="150.2176"
     inkscape:cy="817.41788"
     inkscape:window-width="1298"
     inkscape:window-height="704"
     inkscape:window-x="70"
     inkscape:window-y="27"
     inkscape:window-maximized="1"
     inkscape:current-layer="g8" />
  <g
     inkscape:groupmode="layer"
     inkscape:label="Image"
     id="g8"
     transform="translate(-20.892057,651.62883)">
    <path
       style="fill:#ffffff"
       d="m 82.719166,-141.16552 c -29.061996,-5.79925 -49.533463,-23.63077 -59.08242,-51.46331 l -2.744689,-8 v -194.5 -194.5 l 2.314479,-8 c 3.800678,-13.13705 9.489825,-22.75453 19.210408,-32.47512 9.720584,-9.72058 19.338061,-15.40973 32.475113,-19.2104 l 8,-2.31448 h 164.500003 164.5 l 9.28018,3.15396 c 17.58181,5.97536 20.06521,7.9562 59.83743,47.72842 29.44792,29.44792 36.89549,37.44587 40.32996,43.31037 4.91355,8.3901 8.65627,18.84362 10.09108,28.18467 0.66724,4.34394 0.91742,61.84594 0.72712,167.12258 l -0.29012,160.5 -2.33664,7.5 c -4.10496,13.17587 -9.69997,22.51118 -19.1639,31.97511 -9.46162,9.46163 -18.79139,15.0542 -31.97511,19.16694 l -7.5,2.33966 -192,0.15715 c -105.6,0.0864 -193.877804,-0.21757 -196.172894,-0.67555 z m 11.407718,-122.90521 c 0.254627,-93.73048 0.09247,-90.86356 5.773525,-102.07458 7.462611,-14.72675 22.570151,-25.84464 39.378141,-28.97904 3.43358,-0.6403 53.14505,-1.00448 137.11351,-1.00448 83.96846,0 133.67993,0.36418 137.11351,1.00448 16.80799,3.1344 31.91553,14.25229 39.37814,28.97904 5.68105,11.21102 5.5189,8.3441 5.77352,102.07458 l 0.23483,86.4419 5.5,-0.10265 c 10.33543,-0.19289 21.12572,-7.61008 27.1009,-18.62901 l 3.3991,-6.26834 v -163.5 -163.5 l -2.8828,-6 c -2.44774,-5.09453 -7.956,-11.07321 -36.5,-39.61721 -39.90216,-39.90216 -38.73519,-39.09208 -57.45382,-39.88279 -6.51013,-0.275 -12.02263,-0.3125 -12.25,-0.0833 -0.22736,0.22916 -0.43932,22.72916 -0.47103,50 -0.0506,43.52672 -0.26749,50.38722 -1.77562,56.16452 -4.46754,17.11409 -19.39795,32.1241 -37.13696,37.33493 -4.83028,1.4189 -15.16588,1.60693 -88.34897,1.60727 -57.54976,2.8e-4 -84.13763,-0.33858 -86.99792,-1.10878 -12.287,-3.30855 -26.17412,-13.70768 -32.62976,-24.43425 -7.67715,-12.75619 -7.47559,-11.0446 -8.04381,-68.30761 l -0.50931,-51.32725 -21.5,0.0897 c -24.169968,0.10083 -28.291461,0.85481 -36.244373,6.63052 -2.609403,1.89504 -6.294863,5.5805 -8.18991,8.18991 -7.11057,9.79097 -6.618833,-6.23613 -6.327914,206.24437 l 0.262194,191.5 2.74814,5.21308 c 3.635084,6.89558 8.035149,11.78259 13.483195,14.97536 6.446675,3.778 11.216946,5.30313 15.768665,5.04149 l 4,-0.22993 z m 328.265176,2.75762 c 0,-83.42633 -0.0189,-84.22325 -2.09605,-88.51413 -1.39761,-2.88709 -3.50948,-5.15818 -6.33786,-6.81572 l -4.24181,-2.48587 H 276.39206 143.06778 l -4.24181,2.48587 c -2.82838,1.65754 -4.94025,3.92863 -6.33786,6.81572 -2.07718,4.29088 -2.09605,5.0878 -2.09605,88.51413 v 84.18428 h 146 146 z m -83,-246.55088 c 5.43942,-2.70178 9.06614,-7.75051 10.10735,-14.07039 1.08708,-6.5982 1.09152,-91.95351 0.005,-92.62512 -0.4883,-0.30179 -41.7758,-0.56262 -91.75,-0.57962 l -90.86235,-0.0309 v 48.34439 48.34439 l 2.74573,4.14833 c 2.78483,4.20739 6.81617,6.93272 12.25427,8.28431 1.65,0.41009 36.75,0.67231 78,0.58271 l 75,-0.16292 z"
       id="path845" />
  </g>
</svg>
