<?xml version="1.0" encoding="UTF-8" standalone="no"?>
<!-- Created with Inkscape (http://www.inkscape.org/) -->

<svg
   width="70.55555mm"
   height="70.55555mm"
   viewBox="0 0 70.55555 70.55555"
   version="1.1"
   id="svg1"
   xml:space="preserve"
   inkscape:version="1.3.2 (091e20e, 2023-11-25, custom)"
   sodipodi:docname="icon_los_black.svg"
   xmlns:inkscape="http://www.inkscape.org/namespaces/inkscape"
   xmlns:sodipodi="http://sodipodi.sourceforge.net/DTD/sodipodi-0.dtd"
   xmlns="http://www.w3.org/2000/svg"
   xmlns:svg="http://www.w3.org/2000/svg"><sodipodi:namedview
     id="namedview1"
     pagecolor="#ffffff"
     bordercolor="#000000"
     borderopacity="0.25"
     inkscape:showpageshadow="2"
     inkscape:pageopacity="0.0"
     inkscape:pagecheckerboard="0"
     inkscape:deskcolor="#d1d1d1"
     inkscape:document-units="mm"
     inkscape:zoom="0.73139029"
     inkscape:cx="133.99139"
     inkscape:cy="133.30776"
     inkscape:window-width="1920"
     inkscape:window-height="1017"
     inkscape:window-x="-8"
     inkscape:window-y="-8"
     inkscape:window-maximized="1"
     inkscape:current-layer="layer1" /><defs
     id="defs1" /><g
     inkscape:label="Camada 1"
     inkscape:groupmode="layer"
     id="layer1"
     transform="translate(-69.630875,-113.22223)"><path
       style="fill:#ffffff"
       d="m 73.281286,168.57885 c -0.71644,-0.71644 -1.189726,0.0955 7.851384,-13.46925 5.346881,-8.02214 7.773237,-11.37708 8.228119,-11.37708 0.752125,0 13.351521,18.60252 13.351521,19.713 0,0.69944 -0.59397,1.0979 -1.27877,0.85785 -0.21826,-0.0765 -2.980955,-4.02188 -6.139312,-8.76748 -3.158378,-4.7456 -5.837303,-8.62442 -5.953171,-8.6196 -0.200496,0.008 -12.782268,18.77481 -13.028262,19.43242 -0.06821,0.18236 11.961077,0.31436 28.646335,0.31436 h 28.76396 l -10.47806,-17.46258 c -5.76294,-9.60442 -10.59632,-17.42285 -10.74085,-17.3743 -0.14453,0.0486 -3.08151,4.7714 -6.52663,10.49522 -4.86557,8.0838 -6.421351,10.40694 -6.969398,10.40694 -0.447587,0 -0.744177,-0.27039 -0.811184,-0.73954 -0.12544,-0.87828 13.505122,-23.78136 14.148362,-23.77311 0.23163,0.003 0.59199,0.12203 0.8008,0.26458 0.32124,0.2193 22.21675,36.52533 23.3849,38.77565 0.31799,0.61259 0.28656,0.88201 -0.15435,1.32292 -0.49463,0.49463 -3.85829,0.55367 -31.54771,0.55367 -27.689397,0 -31.053051,-0.059 -31.547684,-0.55367 z"
       id="path1" /><rect
       style="fill:none;stroke-width:0.256645"
       id="rect1"
       width="69.818512"
       height="70.180267"
       x="69.929276"
       y="113.58398" /></g></svg>
