<?xml version="1.0" encoding="UTF-8" standalone="no"?>
<!-- Created with Inkscape (http://www.inkscape.org/) -->

<svg
   width="59.53125mm"
   height="59.53125mm"
   viewBox="0 0 59.53125 59.53125"
   version="1.1"
   id="svg1"
   xml:space="preserve"
   inkscape:version="1.3.2 (091e20e, 2023-11-25, custom)"
   xmlns:inkscape="http://www.inkscape.org/namespaces/inkscape"
   xmlns:sodipodi="http://sodipodi.sourceforge.net/DTD/sodipodi-0.dtd"
   xmlns="http://www.w3.org/2000/svg"
   xmlns:svg="http://www.w3.org/2000/svg"><sodipodi:namedview
     id="namedview1"
     pagecolor="#ffffff"
     bordercolor="#000000"
     borderopacity="0.25"
     inkscape:showpageshadow="2"
     inkscape:pageopacity="0.0"
     inkscape:pagecheckerboard="0"
     inkscape:deskcolor="#d1d1d1"
     inkscape:document-units="mm"
     inkscape:zoom="1.4627806"
     inkscape:cx="86.479135"
     inkscape:cy="68.021138"
     inkscape:window-width="1920"
     inkscape:window-height="1017"
     inkscape:window-x="-8"
     inkscape:window-y="-8"
     inkscape:window-maximized="1"
     inkscape:current-layer="layer1" /><defs
     id="defs1" /><g
     inkscape:label="Camada 1"
     inkscape:groupmode="layer"
     id="layer1"
     transform="translate(-46.718178,-89.69236)"><path
       style="fill:#000000"
       d="m 89.363517,142.35677 c -4.009208,-3.91376 -4.93161,-4.35198 -9.259254,-4.39895 -1.74625,-0.019 -3.454797,-0.0487 -3.796771,-0.0661 -0.341974,-0.0174 -1.026583,-0.4365 -1.521354,-0.93127 -0.71372,-0.71372 -0.899583,-1.11155 -0.899583,-1.9255 0,-0.56426 0.184083,-1.28874 0.409073,-1.60995 0.5976,-0.8532 2.584759,-1.93578 4.557198,-2.48273 0.94819,-0.26292 1.769631,-0.52369 1.825426,-0.57949 0.05579,-0.0558 -0.627574,-1.39806 -1.518597,-2.98282 -5.678011,-10.09882 -5.802267,-10.34065 -5.802267,-11.29212 0,-0.77208 0.169513,-1.08433 0.88487,-1.62996 1.214271,-0.92617 2.506959,-0.90609 3.391769,0.0527 0.369311,0.40018 1.304404,1.79916 2.077983,3.10885 0.77358,1.30969 1.639034,2.7173 1.923232,3.12802 l 0.516723,0.74677 0.748661,-0.71726 c 0.633289,-0.60673 0.910747,-0.69552 1.800466,-0.57619 0.871036,0.11683 1.153032,0.0333 1.640791,-0.48587 0.323942,-0.34482 1.106985,-0.82477 1.740095,-1.06656 0.989084,-0.37773 1.365201,-0.39441 2.672114,-0.11851 1.109928,0.23432 1.722306,0.24407 2.265833,0.0361 1.95357,-0.74757 3.208884,-0.13724 5.063573,2.46187 1.632924,2.28834 2.176722,3.69329 2.801802,7.23878 0.32866,1.86416 1.05153,4.46451 1.84895,6.65119 1.03825,2.84708 1.24141,3.65667 0.98133,3.91063 -0.37298,0.3642 -10.939333,6.44001 -11.199737,6.44001 -0.09337,0 -1.511919,-1.3102 -3.152326,-2.91155 z M 62.112596,125.41875 c -8.826683,-1.7717 -14.549725,-10.92151 -12.309621,-19.68024 0.76382,-2.98651 1.9393,-5.0183 4.230927,-7.313082 3.247587,-3.252057 6.784969,-4.750854 11.212717,-4.750854 3.00409,0 4.620707,0.363223 7.290341,1.638001 3.928669,1.875981 7.087326,5.697185 8.378496,10.135955 0.789139,2.71289 0.591778,7.14335 -0.438978,9.85444 l -0.25113,0.66052 -0.752287,-1.02415 c -1.341261,-1.82597 -2.076602,-2.34706 -3.31204,-2.34706 -1.415385,0 -3.175968,1.10837 -3.783173,2.3817 -0.555647,1.1652 -0.235762,2.35633 1.399907,5.21274 0.641923,1.12101 1.167133,2.14954 1.167133,2.28562 0,0.46251 -4.228256,2.44962 -6.020636,2.82945 -1.91812,0.40648 -5.097294,0.46106 -6.811656,0.11696 z m 5.423959,-11.23897 v -7.01146 h -2.248959 -2.248958 v 7.01146 7.01146 h 2.248958 2.248959 z M 66.963342,103.8129 c 0.734383,-0.46377 1.424291,-1.97663 1.208051,-2.64906 -0.544926,-1.694517 -1.489441,-2.462183 -3.029407,-2.462183 -1.155236,0 -2.632515,1.477273 -2.632515,2.632513 0,1.50802 0.781367,2.49673 2.38125,3.01314 0.505998,0.16333 1.286378,-0.0379 2.072621,-0.53441 z"
       id="path1" /></g></svg>
