<?xml version="1.0" encoding="UTF-8" standalone="no"?>
<!-- Created with Inkscape (http://www.inkscape.org/) -->

<svg
   version="1.1"
   id="svg2"
   width="2047.9998"
   height="2045.5609"
   viewBox="0 0 2047.9998 2045.5609"
   sodipodi:docname="viewshed-icon-2048x2046-tm6chv2v.png"
   inkscape:version="1.1.2 (0a00cf5339, 2022-02-04)"
   xmlns:inkscape="http://www.inkscape.org/namespaces/inkscape"
   xmlns:sodipodi="http://sodipodi.sourceforge.net/DTD/sodipodi-0.dtd"
   xmlns="http://www.w3.org/2000/svg"
   xmlns:svg="http://www.w3.org/2000/svg">
  <defs
     id="defs6" />
  <sodipodi:namedview
     id="namedview4"
     pagecolor="#ffffff"
     bordercolor="#666666"
     borderopacity="1.0"
     inkscape:pageshadow="2"
     inkscape:pageopacity="0.0"
     inkscape:pagecheckerboard="0"
     showgrid="false"
     inkscape:zoom="0.020912432"
     inkscape:cx="1745.3733"
     inkscape:cy="1028.0966"
     inkscape:window-width="1298"
     inkscape:window-height="704"
     inkscape:window-x="70"
     inkscape:window-y="27"
     inkscape:window-maximized="1"
     inkscape:current-layer="g8" />
  <g
     inkscape:groupmode="layer"
     inkscape:label="Image"
     id="g8"
     transform="translate(-8622.1672,2123.8627)">
    <path
       style="fill:#000000"
       d="m 8622.1672,-462.30177 v -384 h 446 446 v 320 320 h 130 130 v -575.913 -575.91303 l 153.75,-109.7361 c 84.5628,-60.3548 210.2248,-150.0402 279.2498,-199.3009 69.025,-49.2606 200.425,-143.0817 292,-208.4911 91.575,-65.4095 167.513,-119.59 168.75,-120.4011 l 2.25,-1.4748 v 959.615 959.615028 h -1023.9998 -1024 z m 768,0 v -256 h -320 -320 v 256 256 h 320 320 z m -512,-64 v -64 h 64 64 v 64 64 h -64 -64 z m 256,0 v -64 h 64 64 v 64 64 h -64 -64 z m 1407.9998,-451 c 0,-424.05003 -0.264,-771.00003 -0.586,-771.00003 -0.664,0 13.968,-10.4294 -360.164,256.7041 l -279.2498,199.3868 v 542.95463 542.9545 h 319.9998 320 z m -512,451 v -64 h 64 64 v 64 64 h -64 -64 z m 256,0 v -64 h 64 64 v 64 64 h -64 -64 z m -256,-256 v -64 h 64 64 v 64 64 h -64 -64 z m 256,0 v -64 h 64 64 v 64 64 h -64 -64 z m -256,-256.00003 v -64 h 64 64 v 64 64.00003 h -64 -64 z m 256,0 v -64 h 64 64 v 64 64.00003 h -64 -64 z m 0.243,-255.75 0.257,-63.75 63.75,-0.2574 63.75,-0.2574 v 64.0074 64.0074 h -64.007 -64.008 z m -1024.2428,255.75 v -64 h 64 64 v 64 64.00003 h -64 -64 z m -255.7574,-255.75 0.2574,-63.75 63.75,-0.2574 63.75,-0.2574 v 64.0074 64.0074 h -64.0074 -64.0074 z m -143.2895,-236.5496 c -34.1875,-21.6224 -57.1244,-39.4004 -83.9531,-65.0706 -91.6303,-87.6737 -146.4082,-204.5989 -155.0581,-330.9765 -1.4973,-21.8758 -0.7147,-68.671 1.4578,-87.1713 3.8284,-32.602 8.4605,-56.281 12.6225,-64.5259 3.6869,-7.3038 12.395,-16.0467 19.298,-19.3753 12.4387,-5.9979 66.7339,-17.4055 104.6798,-21.9937 37.2424,-4.5032 94.5729,-5.4838 130.4449,-2.2314 72.7826,6.5991 140.7376,23.8937 206.5551,52.5684 41.4259,18.048 100.8583,52.1885 98.2806,56.4564 -0.3719,0.6158 -18.2824,28.3445 -39.8011,61.6195 -21.5188,33.275 -55.7039,86.15 -75.9669,117.5 -20.2631,31.35 -42.9728,66.45 -50.466,78 -7.4933,11.55 -24.6026,37.9875 -38.0207,58.75 -13.4181,20.7625 -24.8404,37.75 -25.3829,37.75 -1.8391,0 -23.7738,-13.2255 -31.9807,-19.2828 -37.8357,-27.9253 -64.2452,-72.6029 -70.7663,-119.7172 -1.666,-12.0366 -1.7043,-37.8459 -0.073,-49.2495 3.6241,-25.3362 15.6653,-57.087 27.8625,-73.469 5.3816,-7.228 21.3179,-23.421 30.2069,-30.6933 31.3111,-25.6166 74.4255,-42.8876 112.8578,-45.2093 6.1875,-0.3737 11.25,-0.9602 11.25,-1.3031 0,-0.9053 -25.4961,-10.3082 -39.5,-14.5674 -45.3024,-13.7786 -84.9695,-20.1244 -132.5154,-21.1994 -52.5616,-1.1883 -100.5726,5.5717 -152.4846,21.47 l -6,1.8375 -0.8173,6.9418 c -1.5343,13.0311 -0.1479,66.2387 2.2002,84.4417 6.4735,50.183 19.5417,94.2655 41.0581,138.5 22.6515,46.568 48.3632,82.7949 84.5292,119.0985 24.5591,24.6525 43.3174,40.0735 70.7321,58.148 l 12.8541,8.4747 -1.7782,2.7456 c -0.978,1.51 -11.6782,18.0963 -23.7782,36.8584 -12.1,18.762 -22.45,34.1045 -23,34.0942 -0.55,-0.01 -7.5461,-4.1588 -15.5469,-9.219 z m 911.0469,-147.7078 v -64.0074 l 63.75,0.2574 63.75,0.2574 0.2574,63.75 0.2574,63.75 h -64.0074 -64.0074 z m -256,-128 v -64.0074 l 63.75,0.2574 63.75,0.2574 0.2574,63.75 0.2574,63.75 h -64.0074 -64.0074 z m -256,-128 v -64.0074 l 63.75,0.2574 63.75,0.2574 0.2574,63.75 0.2574,63.75 h -64.0074 -64.0074 z"
       id="path845" />
  </g>
</svg>
