<svg xmlns="http://www.w3.org/2000/svg" viewBox="0 0 240 200" role="img" aria-labelledby="title desc"><title id="title">Ponte — símbolo completo</title><desc id="desc">Estudo revisto visualmente. Preto: símbolo e dados. Vermelho: contexto. Âncora 16,154.</desc><g data-role="symbol" fill="none" stroke="currentColor" color="#000000" stroke-width="1.8" stroke-linecap="round" stroke-linejoin="round"><circle cx="120" cy="104" r="70" data-part="bridge-outline"/><line x1="50" y1="104" x2="190" y2="104" /><circle cx="120" cy="59" r="5.8" data-part="wheel"/><path d="M110 89h24l-6 7h-24Z" data-part="track"/><g data-part="two-way-flow"><line x1="84" y1="82" x2="84" y2="71" /><polygon points="80.70000000,75.00000000 84.00000000,69.00000000 87.30000000,75.00000000" fill="currentColor" stroke="none"/><line x1="97" y1="70" x2="97" y2="81" /><polygon points="93.70000000,77.00000000 97.00000000,83.00000000 100.30000000,77.00000000" fill="currentColor" stroke="none"/></g><g data-part="one-way-flow"><line x1="151" y1="82" x2="151" y2="71" /><polygon points="147.70000000,75.00000000 151.00000000,69.00000000 154.30000000,75.00000000" fill="currentColor" stroke="none"/></g><g data-part="bridge-leader"><line x1="52.2" y1="121.4" x2="16" y2="154" /><polygon points="16.00000000,154.00000000 20.40000000,144.30000000 26.10000000,150.50000000" fill="currentColor" stroke="none"/></g><text x="120" y="128" font-size="18" fill="currentColor" stroke="none" text-anchor="middle" font-family="Arial,sans-serif" data-part="order">3</text><text x="89" y="64" font-size="14" fill="currentColor" stroke="none" text-anchor="middle" font-family="Arial,sans-serif" data-part="wheels-two">80</text><text x="151" y="64" font-size="14" fill="currentColor" stroke="none" text-anchor="middle" font-family="Arial,sans-serif" data-part="wheels-one">100</text><text x="89" y="99" font-size="14" fill="currentColor" stroke="none" text-anchor="middle" font-family="Arial,sans-serif" data-part="tracks-two">60</text><text x="151" y="99" font-size="14" fill="currentColor" stroke="none" text-anchor="middle" font-family="Arial,sans-serif" data-part="tracks-one">80</text><text x="25" y="109" font-size="16" fill="currentColor" stroke="none" text-anchor="middle" font-family="Arial,sans-serif" data-part="clearance">4</text><text x="214" y="109" font-size="16" fill="currentColor" stroke="none" text-anchor="middle" font-family="Arial,sans-serif" data-part="length">100</text><text x="120" y="195" font-size="16" fill="currentColor" stroke="none" text-anchor="middle" font-family="Arial,sans-serif" data-part="width">9</text><line x1="17" y1="115" x2="33" y2="115" data-example-underline="true"/></g></svg>